<svg width="94" height="100" viewBox="0 0 94 100" fill="none" xmlns="http://www.w3.org/2000/svg">
<g clip-path="url(#clip0_3_376)">
<path d="M47.0005 1.60165C42.1203 1.60653 37.3512 3.06611 33.2964 5.79578C29.2416 8.52544 26.0831 12.4026 24.2205 16.9368C22.3579 21.471 21.8749 26.4586 22.8325 31.2688C23.7901 36.079 26.1453 40.4957 29.6003 43.9602C33.0552 47.4248 37.4547 49.7816 42.2423 50.7325C47.0299 51.6835 51.9905 51.1859 56.4967 49.3026C61.0029 47.4194 64.8523 44.2351 67.558 40.1526C70.2637 36.07 71.7042 31.2726 71.6972 26.367C71.7005 23.1088 71.0635 19.8821 69.8227 16.872C68.582 13.8619 66.7621 11.1279 64.4673 8.82674C62.1726 6.52563 59.4483 4.7028 56.4508 3.46291C53.4534 2.22302 50.2418 1.59049 47.0005 1.60165ZM47.0005 52.7341C41.812 52.7369 36.7392 51.1928 32.4238 48.2973C28.1084 45.4017 24.7442 41.2848 22.7567 36.4671C20.7692 31.6494 20.2478 26.3474 21.2583 21.2317C22.2688 16.1161 24.7659 11.4166 28.4337 7.72773C32.1016 4.03882 36.7754 1.5262 41.864 0.50768C46.9525 -0.510842 52.2273 0.0104889 57.0211 2.00573C61.8149 4.00098 65.9124 7.3805 68.7953 11.7168C71.6781 16.0532 73.2169 21.1515 73.2169 26.367C73.2076 33.3547 70.443 40.0537 65.5289 44.9961C60.6147 49.9384 53.9519 52.721 47.0005 52.7341ZM63.3655 18.6446V18.7187C63.4392 21.7068 61.8459 23.3049 58.6592 23.4531H58.589V23.3049C58.7329 20.1757 60.2526 18.5741 63.2953 18.6446H63.3655ZM58.6592 29.207H58.589V29.0588C58.7329 25.9296 60.2526 24.3244 63.2953 24.3985H63.3655V24.4726C63.4392 27.4571 61.8459 29.0588 58.6592 29.207ZM58.6592 34.9609H58.589V34.8162C58.7329 31.6835 60.2526 30.0819 63.2953 30.1559H63.3655V30.2265C63.4392 33.211 61.8459 34.8162 58.6592 34.9609ZM53.0123 19.4384H52.9386V19.3643C53.0123 16.161 54.6057 14.5594 57.6485 14.6335H57.7187V14.704C57.7187 17.7732 56.199 19.3008 53.0123 19.4454V19.4384ZM53.0123 25.1923H52.9386V25.1217C53.0123 21.9184 54.6057 20.3133 57.6485 20.3874H57.7187V20.4615C57.7187 23.5236 56.199 25.0476 53.0123 25.1993V25.1923ZM53.0123 30.9497H52.9386V30.8756C53.0123 27.6688 54.6057 26.0672 57.6485 26.1413H57.7187V26.2153C57.7187 29.281 56.199 30.8086 53.0123 30.9568V30.9497ZM53.0123 36.7001H52.9386V36.6295C53.0123 33.4227 54.6057 31.8211 57.6485 31.8952H57.7187V31.9657C57.7187 35.0349 56.199 36.5625 53.0123 36.7071V36.7001ZM53.0123 42.454H52.9386V42.3799C53.0123 39.1801 54.6057 37.575 57.6485 37.6491H57.7187V37.7196C57.7187 40.7888 56.199 42.3869 53.0123 42.461V42.454ZM47.5795 20.0275H47.5058V19.957C47.6532 16.7537 49.1729 15.1485 52.2157 15.2226H52.2859V15.2932C52.3596 18.3447 50.7662 19.8829 47.5795 20.0275ZM47.5795 25.785H47.5058V25.7109C47.6532 22.5076 49.1729 20.906 52.2157 20.9765H52.2859V21.0506C52.3596 24.1057 50.7662 25.6403 47.5795 25.785ZM47.5795 31.5389H47.5058V31.4648C47.6532 28.258 49.1729 26.6563 52.2157 26.7304H52.2859V26.8116C52.3596 29.8631 50.7662 31.3977 47.5795 31.5389ZM47.5795 37.2892H47.5058V37.2187C47.6532 34.0119 49.1729 32.4102 52.2157 32.4843H52.2859V32.5549C52.3596 35.6311 50.7662 37.1446 47.5795 37.2892ZM47.5795 43.0431H47.5058V42.9726C47.6532 39.7693 49.1729 38.1641 52.2157 38.2382H52.2859V38.3088C52.3596 41.3709 50.7662 42.9726 47.5795 43.0396V43.0431ZM47.0005 16.535L46.9268 16.4609C44.821 14.129 44.821 11.8747 46.9268 9.758L47.0005 9.68744L47.0742 9.758C49.2466 11.8747 49.2466 14.129 47.0742 16.4609L47.0005 16.535ZM46.4214 20.0275C43.3084 19.8829 41.7151 18.3553 41.7151 15.2932V15.2226H41.7888C44.828 15.1485 46.4214 16.7537 46.4951 19.957V20.0275H46.4214ZM46.4214 25.785C43.3084 25.6403 41.7151 24.1057 41.7151 21.0506V20.9765H41.7888C44.828 20.906 46.4214 22.5076 46.4951 25.7109V25.785H46.4214ZM46.4214 31.5389C43.3084 31.3977 41.7151 29.8631 41.7151 26.8116V26.7375H41.7888C44.828 26.6634 46.4214 28.265 46.4951 31.4718V31.5459L46.4214 31.5389ZM46.4214 37.2892C43.3084 37.1446 41.7151 35.617 41.7151 32.5549V32.4843H41.7888C44.828 32.4102 46.4214 34.0119 46.4951 37.2187V37.2892H46.4214ZM46.4214 43.0431C43.3084 42.9726 41.7151 41.3709 41.7151 38.3088V38.2382H41.7888C44.828 38.1641 46.4214 39.7693 46.4951 42.9726V43.0431H46.4214ZM40.9921 19.4454C37.8756 19.3008 36.2823 17.7732 36.2823 14.7111V14.6405H36.3525C39.3988 14.5664 40.9921 16.1681 41.0623 19.3713V19.4454H40.9921ZM40.9921 25.1993C37.8756 25.0476 36.2823 23.5236 36.2823 20.4615V20.3909H36.3525C39.3988 20.3168 40.9921 21.922 41.0623 25.1252V25.1958L40.9921 25.1993ZM40.9921 30.9568C37.8756 30.8086 36.2823 29.2775 36.2823 26.2224V26.1483H36.3525C39.3988 26.0742 40.9921 27.6759 41.0623 30.8827V30.9568H40.9921ZM40.9921 36.7071C37.8756 36.5625 36.2823 35.0349 36.2823 31.9728V31.9022H36.3525C39.3988 31.8281 40.9921 33.4298 41.0623 36.6366V36.7071H40.9921ZM40.9921 42.461C37.8756 42.3869 36.2823 40.7888 36.2823 37.7267V37.6561H36.3525C39.3988 37.582 40.9921 39.1872 41.0623 42.3869V42.461H40.9921ZM35.3417 23.4531C32.2287 23.3049 30.6354 21.6891 30.6354 18.7187V18.6446H30.7056C33.7484 18.5741 35.3417 20.1757 35.4119 23.3049V23.4531H35.3417ZM35.3417 29.207C32.2287 29.0588 30.6354 27.443 30.6354 24.4726V24.3985H30.7056C33.7484 24.3421 35.3417 25.9296 35.4119 29.0588V29.207H35.3417ZM35.3417 34.9609C32.2287 34.8162 30.6354 33.1969 30.6354 30.2265V30.1559H30.7056C33.7484 30.0819 35.3417 31.6835 35.4119 34.8162V34.9609H35.3417ZM47.0005 3.35145C42.4715 3.34936 38.0437 4.69742 34.2771 7.22513C30.5104 9.75285 27.5741 13.3467 25.8395 17.552C24.1049 21.7574 23.65 26.3854 24.5322 30.8507C25.4145 35.316 27.5944 39.4179 30.796 42.6378C33.9977 45.8576 38.0775 48.0507 42.5192 48.9396C46.961 49.8285 51.5652 49.3734 55.7496 47.6317C59.9339 45.89 63.5105 42.9401 66.0268 39.1549C68.5432 35.3698 69.8863 30.9196 69.8863 26.367C69.8752 20.2682 67.4608 14.4222 63.1715 10.1087C58.8823 5.79512 53.0677 3.36544 47.0005 3.35145Z" fill="white"/>
<path d="M57.6483 69.1914C54.4617 69.1914 52.4331 71.742 52.4331 75.8943C52.4331 80.1277 54.388 82.6677 57.7185 82.6677C60.8315 82.6677 62.86 80.1171 62.86 75.8943C62.86 71.742 60.8315 69.1914 57.6483 69.1914ZM57.6483 87.4021C51.2013 87.4021 46.8564 82.8159 46.8564 75.9648C46.8564 69.1138 51.2013 64.457 57.7361 64.457C64.1094 64.457 68.3841 69.1208 68.3841 75.9648C68.3841 82.8088 64.0919 87.4021 57.6483 87.4021Z" fill="white"/>
<path fill-rule="evenodd" clip-rule="evenodd" d="M7.53216 83.4687L6.15642 87.1094C6.08272 87.1835 6.01252 87.254 5.93882 87.254H0.291945C0.218244 87.254 0.218244 87.1835 0.144544 87.1094C0.0708429 87.0353 0.0743525 86.9647 0.144544 86.9647L8.40253 65.1874C8.47272 65.1133 8.54642 65.0392 8.62013 65.0392H14.6285C14.6668 65.0417 14.7028 65.0581 14.73 65.0854C14.7571 65.1127 14.7734 65.1489 14.7759 65.1874L22.9567 86.9647V87.1094C22.8865 87.1835 22.8128 87.254 22.7391 87.254H17.0922C17.0185 87.254 16.9483 87.1835 16.8746 87.1094L15.5726 83.5427C15.4989 83.3946 15.4252 83.3946 15.355 83.3946H7.74976C7.71027 83.3896 7.67018 83.3937 7.63249 83.4065C7.59481 83.4193 7.5605 83.4406 7.53216 83.4687ZM11.5822 71.8868L9.26939 78.6708C9.26417 78.7105 9.2681 78.7509 9.28088 78.7888C9.29366 78.8267 9.31494 78.8612 9.34309 78.8895C9.34309 78.9636 9.4168 78.9636 9.48699 78.9636H13.6879C13.7616 78.9636 13.8318 78.9636 13.8318 78.8895C13.8492 78.8771 13.8634 78.8607 13.8732 78.8417C13.8829 78.8227 13.8881 78.8016 13.8881 78.7802C13.8881 78.7587 13.8829 78.7376 13.8732 78.7186C13.8634 78.6996 13.8492 78.6832 13.8318 78.6708L11.5822 71.8868Z" fill="white"/>
<path fill-rule="evenodd" clip-rule="evenodd" d="M72.3467 65.0392H77.7057C77.7452 65.0342 77.7853 65.0383 77.823 65.0511C77.8607 65.0639 77.895 65.0852 77.9233 65.1133L88.2063 78.5896H88.28V65.265C88.276 65.2353 88.2788 65.205 88.2883 65.1766C88.2978 65.1482 88.3137 65.1224 88.3348 65.1012C88.3558 65.0801 88.3815 65.0641 88.4098 65.0545C88.438 65.045 88.4681 65.0421 88.4976 65.0462H93.7058C93.7353 65.0421 93.7654 65.045 93.7937 65.0545C93.8219 65.0641 93.8476 65.0801 93.8687 65.1012C93.8898 65.1224 93.9057 65.1482 93.9152 65.1766C93.9247 65.205 93.9275 65.2353 93.9234 65.265V87.0458C93.9193 87.1021 93.8949 87.1549 93.8549 87.1945C93.8148 87.2341 93.7619 87.2577 93.7058 87.261H88.3537C88.3158 87.2594 88.2797 87.2437 88.2525 87.217C88.2254 87.1903 88.2089 87.1545 88.2063 87.1164L77.8496 73.6436V87.0493C77.8338 87.1005 77.8057 87.1469 77.7677 87.1844C77.7298 87.222 77.6832 87.2495 77.632 87.2645H72.3467C72.2963 87.2487 72.2506 87.2209 72.2133 87.1834C72.176 87.1459 72.1483 87.0999 72.1326 87.0493V65.265C72.1341 65.2074 72.1569 65.1524 72.1964 65.1107C72.236 65.069 72.2895 65.0435 72.3467 65.0392Z" fill="white"/>
<path fill-rule="evenodd" clip-rule="evenodd" d="M43.3083 69.4984C43.3985 69.4898 43.4829 69.4499 43.5469 69.3855C43.611 69.3211 43.6507 69.2363 43.6593 69.1456V65.4026C43.6507 65.3119 43.611 65.2271 43.5469 65.1627C43.4829 65.0984 43.3985 65.0584 43.3083 65.0498H27.4486C27.3555 65.0498 27.2663 65.087 27.2004 65.1531C27.1346 65.2193 27.0977 65.309 27.0977 65.4026V86.8906C27.1056 86.9815 27.1451 87.0667 27.2093 87.1312C27.2734 87.1957 27.3582 87.2355 27.4486 87.2434H43.3083C43.3941 87.2241 43.4726 87.1807 43.5347 87.1183C43.5969 87.0558 43.6401 86.9768 43.6593 86.8906V83.1758C43.6514 83.0849 43.6118 82.9997 43.5477 82.9352C43.4835 82.8707 43.3987 82.831 43.3083 82.823H33.1692C33.0868 82.8088 33.0122 82.7654 32.9588 82.7007C32.9054 82.636 32.8767 82.5543 32.8779 82.4703V78.4415C32.8767 78.3574 32.9054 78.2757 32.9588 78.211C33.0122 78.1463 33.0868 78.103 33.1692 78.0887H41.2798C41.3729 78.0887 41.4621 78.0515 41.5279 77.9854C41.5938 77.9192 41.6307 77.8295 41.6307 77.7359V73.9999C41.6307 73.9064 41.5938 73.8166 41.5279 73.7505C41.4621 73.6843 41.3729 73.6471 41.2798 73.6471H33.1692C33.0868 73.6329 33.0122 73.5895 32.9588 73.5248C32.9054 73.4601 32.8767 73.3784 32.8779 73.2944V69.8512C32.8767 69.7671 32.9054 69.6854 32.9588 69.6207C33.0122 69.5561 33.0868 69.5127 33.1692 69.4984H43.3083Z" fill="white"/>
<path d="M3.04279 100C1.23185 100 0 98.6171 0 96.6627C0 94.8423 1.15815 93.3853 3.04279 93.3853C4.56243 93.3853 5.65039 94.3308 5.79428 95.6431H4.41853C4.35821 95.3248 4.18608 95.0389 3.93354 94.8375C3.68101 94.6361 3.36488 94.5326 3.04279 94.546C1.81093 94.546 1.37575 95.6396 1.37575 96.6627C1.37575 97.9715 2.02852 98.8464 3.04279 98.8464C3.83946 98.8464 4.34483 98.3384 4.48872 97.3894H5.79428C5.65039 98.9099 4.70632 100 3.04279 100Z" fill="white"/>
<path d="M10.7918 96.6627C10.7918 98.0456 11.441 98.8464 12.5465 98.8464C13.5608 98.8464 14.2101 97.9715 14.2101 96.6627C14.2101 95.3539 13.5608 94.546 12.5465 94.546C11.5323 94.546 10.7918 95.3397 10.7918 96.6627ZM15.5718 96.6627C15.5718 98.6277 14.3399 100.011 12.529 100.011C10.6444 100.011 9.41602 98.6277 9.41602 96.6627C9.41602 94.6977 10.6444 93.3853 12.529 93.3853C14.3399 93.3747 15.5718 94.6836 15.5718 96.6627Z" fill="white"/>
<path d="M20.931 96.3592H22.2331C22.8858 96.3592 23.3912 96.2146 23.3912 95.4843C23.3912 94.754 22.8858 94.6129 22.3068 94.6129H20.931V96.3592ZM22.6858 93.5193C23.8439 93.5193 24.7915 94.0273 24.7915 95.3397C24.8132 95.6714 24.7257 96.0011 24.5424 96.2779C24.359 96.5546 24.0902 96.7629 23.7773 96.8707C24.5037 97.0154 24.6476 97.7421 24.7178 98.3277C24.7178 98.6805 24.7915 99.566 25.0091 99.7847H23.5351C23.4167 99.3833 23.3681 98.9645 23.3912 98.5465C23.321 97.6715 23.0403 97.3787 22.1594 97.3787H20.931V99.7847H19.5518V93.5193H22.6858Z" fill="white"/>
<path d="M30.1997 96.5039H31.4316C32.0107 96.5039 32.4423 96.2887 32.4423 95.5585C32.4423 94.9023 32.0107 94.6836 31.4316 94.6836H30.1997V96.5039ZM31.5018 93.5194C32.8775 93.5194 33.8181 94.1756 33.8181 95.5585C33.8181 96.9414 32.8073 97.527 31.5755 97.527H30.1997V99.7848H28.824V93.5194H31.5018Z" fill="white"/>
<path d="M38.7466 96.6627C38.7466 98.0456 39.3994 98.8464 40.4839 98.8464C41.4981 98.8464 42.1509 97.9715 42.1509 96.6627C42.1509 95.3539 41.4981 94.546 40.4137 94.546C39.3994 94.546 38.7466 95.3397 38.7466 96.6627ZM43.5196 96.6627C43.5196 98.6277 42.2878 100.011 40.4066 100.011C38.5922 100.011 37.3604 98.6277 37.3604 96.6627C37.3604 94.6977 38.5922 93.3853 40.4768 93.3853C42.2948 93.3747 43.5196 94.6836 43.5196 96.6627Z" fill="white"/>
<path d="M48.8106 96.3593H50.1127C50.7654 96.3593 51.3445 96.2147 51.3445 95.4844C51.3445 94.7542 50.7654 94.613 50.1864 94.613H48.8106V96.3593ZM50.5479 93.5194C51.706 93.5194 52.6536 94.0274 52.6536 95.3398C52.6737 95.6619 52.5936 95.9823 52.4244 96.2566C52.2553 96.5309 52.0054 96.7456 51.7095 96.8709C52.3623 97.0155 52.5799 97.7422 52.5799 98.3278C52.6536 98.6806 52.6536 99.5661 52.9308 99.7848H51.4814C51.3375 99.492 51.3375 98.8359 51.2638 98.5466C51.1936 97.6717 50.976 97.3789 50.0319 97.3789H48.8036V99.7848H47.498V93.5194H50.5479Z" fill="white"/>
<path d="M59.093 95.0504L58.2963 97.3787H59.9634L59.093 95.0504ZM62.206 99.7847H60.76L60.2511 98.3983H57.9348L57.4295 99.7847H56.0537L58.4437 93.5193H59.816L62.206 99.7847Z" fill="white"/>
<path d="M69.668 94.6836H67.7869V99.7848H66.4076V94.6836H64.5967V93.5194H69.668V94.6836Z" fill="white"/>
<path d="M74.7351 93.5193H73.3594V99.7812H74.7351V93.5193Z" fill="white"/>
<path d="M80.0179 96.6627C80.0179 98.0456 80.6707 98.8464 81.7552 98.8464C82.7694 98.8464 83.4222 97.9715 83.4222 96.6627C83.4222 95.3538 82.7694 94.546 81.7552 94.546C80.7409 94.546 80.0179 95.3397 80.0179 96.6627ZM84.7979 96.6627C84.7979 98.6277 83.5661 100.011 81.7552 100.011C79.874 100.011 78.6387 98.6277 78.6387 96.6627C78.6387 94.6977 79.874 93.3853 81.7552 93.3853C83.5731 93.3747 84.805 94.6835 84.805 96.6627H84.7979Z" fill="white"/>
<path d="M88.7139 93.5193H90.1599L92.6973 97.7421V93.5193H94.0028V99.7847H92.6236L90.0897 95.6325V99.7847H88.7139V93.5193Z" fill="white"/>
</g>
<defs>
<clipPath id="clip0_3_376">
<rect width="94" height="100" fill="white"/>
</clipPath>
</defs>
</svg>
