<svg width="96" height="140" viewBox="0 0 96 140" fill="none" xmlns="http://www.w3.org/2000/svg">
<path fill-rule="evenodd" clip-rule="evenodd" d="M20.7002 70.8539H24.5628V114.997H32.0357V116.854H20.7002V70.8539Z" fill="white"/>
<path fill-rule="evenodd" clip-rule="evenodd" d="M92.1382 70.8539V108.302L83.9565 70.8539H83.6321H82.2144H79.7695V116.854H83.6321V77.4288L92.1382 116.854H94.0064H96.0008V70.8539H92.1382Z" fill="white"/>
<path fill-rule="evenodd" clip-rule="evenodd" d="M66.8177 70.8539H62.889C61.235 70.8665 59.6523 71.5256 58.4832 72.6889C57.3142 73.8522 56.6526 75.4261 56.6416 77.0705V110.643C56.6542 112.286 57.3164 113.859 58.4853 115.021C59.6542 116.183 61.236 116.841 62.889 116.854H66.8177C68.4718 116.843 70.0551 116.185 71.2253 115.023C72.3954 113.861 73.0585 112.288 73.0711 110.643V77.0705C73.0585 75.4256 72.3957 73.8517 71.2256 72.6885C70.0556 71.5254 68.4723 70.8664 66.8177 70.8539ZM69.0824 111.861C69.0824 113.844 67.6647 115.444 65.8625 115.444H63.8562C62.054 115.444 60.6363 113.844 60.6363 111.861V75.8403C60.6363 73.8577 62.054 72.2573 63.8562 72.2573H65.8565C67.6587 72.2573 69.0764 73.8637 69.0764 75.8403L69.0824 111.861Z" fill="white"/>
<path fill-rule="evenodd" clip-rule="evenodd" d="M46.5307 99.4284V111.861C46.5307 113.844 45.1131 115.444 43.371 115.444H41.3105C39.5745 115.444 38.0907 113.844 38.0907 111.861V75.8403C38.0907 73.8577 39.5745 72.2573 41.3105 72.2573H43.371C45.1131 72.2573 46.5307 73.8637 46.5307 75.8403V88.333H50.5195V77.0705C50.5227 75.4331 49.8748 73.8609 48.7169 72.6964C47.5591 71.532 45.9851 70.8697 44.3381 70.8539H40.3434C38.6964 70.8697 37.1225 71.532 35.9646 72.6964C34.8067 73.8609 34.1588 75.4331 34.1621 77.0705V110.643C34.1604 112.28 34.809 113.85 35.9667 115.013C37.1244 116.177 38.6975 116.838 40.3434 116.854H44.3381C45.9841 116.838 47.5571 116.177 48.7148 115.013C49.8725 113.85 50.5211 112.28 50.5195 110.643V99.4284H46.5307Z" fill="white"/>
<path fill-rule="evenodd" clip-rule="evenodd" d="M10.5665 116.854H14.6874L10.4344 70.8719H4.89581L0 116.854H2.12653L2.90745 109.491H9.89375L10.5665 116.854ZM3.10569 107.628L6.67393 74.1205L9.72555 107.628H3.10569Z" fill="white"/>
<path d="M46.2129 26.6754C46.5193 33.5368 47.8769 63.9685 47.8829 64.0581C47.8829 64.0771 47.8905 64.0953 47.904 64.1088C47.9175 64.1222 47.9358 64.1297 47.955 64.1297C47.9741 64.1297 47.9924 64.1222 48.0059 64.1088C48.0195 64.0953 48.027 64.0771 48.027 64.0581C48.027 63.9924 49.667 26.4903 49.7571 24.4957C48.5917 25.2482 47.4083 25.9707 46.2129 26.6754Z" fill="white"/>
<path d="M60.7738 64.0582C60.7738 63.9687 62.5039 16.7745 62.576 14.8038C61.4146 15.8349 60.2132 16.8521 58.9717 17.8554C59.2901 26.6337 60.6296 63.9806 60.6296 64.0582C60.6296 64.1359 60.7738 64.1418 60.7738 64.0582Z" fill="white"/>
<path d="M35.2442 64.0463L37.0043 31.4349C35.8028 31.9604 34.6174 32.4521 33.448 32.9099L35.094 64.0463C35.0907 64.0578 35.0901 64.07 35.0923 64.0818C35.0945 64.0936 35.0994 64.1047 35.1067 64.1143C35.114 64.1239 35.1234 64.1317 35.1342 64.1371C35.1451 64.1424 35.157 64.1452 35.1691 64.1452C35.1812 64.1452 35.1931 64.1424 35.2039 64.1371C35.2147 64.1317 35.2241 64.1239 35.2314 64.1143C35.2387 64.1047 35.2436 64.0936 35.2458 64.0818C35.2481 64.07 35.2475 64.0578 35.2442 64.0463Z" fill="white"/>
<path d="M22.4847 64.0462L24.2448 35.7524C23.0193 36.0271 21.8059 36.2521 20.6045 36.4272L22.3405 64.0403C22.3401 64.0497 22.3416 64.0591 22.3449 64.0679C22.3481 64.0768 22.3531 64.0849 22.3595 64.0918C22.3659 64.0988 22.3737 64.1044 22.3822 64.1083C22.3908 64.1123 22.4001 64.1145 22.4096 64.1149C22.4191 64.1153 22.4285 64.1139 22.4374 64.1106C22.4463 64.1074 22.4545 64.1024 22.4615 64.096C22.4684 64.0897 22.4741 64.082 22.4781 64.0734C22.482 64.0649 22.4843 64.0557 22.4847 64.0462Z" fill="white"/>
<path d="M71.6943 5.31479L73.4244 64.0462C73.4244 64.0556 73.4263 64.065 73.4299 64.0737C73.4335 64.0824 73.4388 64.0902 73.4455 64.0969C73.4522 64.1036 73.4601 64.1088 73.4689 64.1124C73.4776 64.116 73.487 64.1179 73.4965 64.1179C73.5059 64.1179 73.5153 64.116 73.5241 64.1124C73.5328 64.1088 73.5408 64.1036 73.5474 64.0969C73.5541 64.0902 73.5595 64.0824 73.5631 64.0737C73.5667 64.065 73.5686 64.0556 73.5686 64.0462L75.3947 0C74.2868 1.8548 73.0503 3.63068 71.6943 5.31479Z" fill="white"/>
<path d="M17.673 128.654H19.7274C20.8748 128.654 21.8179 129.329 21.8179 130.523V138.065C21.8179 139.26 20.8748 139.916 19.7274 139.916H17.673V128.654ZM19.7274 138.806C19.8234 138.807 19.9185 138.788 20.0068 138.751C20.095 138.713 20.1745 138.658 20.24 138.588C20.3056 138.518 20.3558 138.436 20.3875 138.346C20.4193 138.256 20.4318 138.16 20.4242 138.065V130.523C20.4308 130.428 20.4177 130.333 20.3857 130.243C20.3536 130.154 20.3033 130.071 20.2379 130.002C20.1726 129.932 20.0935 129.877 20.0057 129.839C19.9178 129.802 19.8231 129.782 19.7274 129.782H19.0666V138.794L19.7274 138.806Z" fill="white"/>
<path d="M23.2236 128.654H27.0321V129.782H24.6292V133.592H26.7197V134.721H24.6292V138.794H27.0321V139.916H23.2236V128.654Z" fill="white"/>
<path d="M27.9873 128.654H29.435L30.3781 138.34H30.4082L31.3633 128.654H32.805L31.3032 139.916H29.5011L27.9873 128.654Z" fill="white"/>
<path d="M33.8622 128.654H37.6647V129.782H35.2619V133.592H37.3524V134.721H35.2499V138.794H37.6527V139.916H33.8622V128.654Z" fill="white"/>
<path d="M39.0469 128.654H40.4405V138.806H42.7713V139.928H39.0469V128.654Z" fill="white"/>
<path d="M48.0575 130.439V138.149C48.0575 139.343 47.1204 140 45.9731 140C44.8257 140 43.8525 139.337 43.8525 138.149V130.439C43.8525 129.245 44.7776 128.576 45.943 128.576C47.1084 128.576 48.0575 129.251 48.0575 130.439ZM45.2882 138.149C45.2807 138.242 45.2928 138.336 45.324 138.424C45.3552 138.512 45.4046 138.593 45.4692 138.661C45.5337 138.729 45.6119 138.783 45.6987 138.819C45.7855 138.856 45.879 138.873 45.9731 138.871C46.0674 138.873 46.1611 138.856 46.2482 138.819C46.3353 138.783 46.4138 138.73 46.4788 138.662C46.5438 138.594 46.5939 138.513 46.6257 138.425C46.6576 138.336 46.6706 138.242 46.6639 138.149V130.439C46.6704 130.345 46.6575 130.25 46.6258 130.161C46.5941 130.072 46.5444 129.99 46.4796 129.921C46.4149 129.851 46.3366 129.796 46.2494 129.758C46.1623 129.719 46.0682 129.699 45.9731 129.699C45.8778 129.698 45.7836 129.718 45.6963 129.756C45.6091 129.794 45.5307 129.849 45.4663 129.919C45.4018 129.989 45.3527 130.071 45.3221 130.16C45.2914 130.25 45.2799 130.345 45.2882 130.439V138.149Z" fill="white"/>
<path d="M49.4512 128.654H51.4696C52.6229 128.654 53.5781 129.329 53.5781 130.523V133.61C53.5781 134.805 52.6229 135.462 51.4696 135.462H50.8388V139.916H49.4512V128.654ZM51.4696 134.363C51.5647 134.366 51.6595 134.35 51.7477 134.315C51.8359 134.279 51.9156 134.226 51.9815 134.157C52.0473 134.089 52.0979 134.008 52.1298 133.918C52.1616 133.829 52.1741 133.734 52.1664 133.64V130.553C52.1749 130.457 52.163 130.361 52.1317 130.271C52.1003 130.181 52.0501 130.098 51.9843 130.028C51.9186 129.958 51.8388 129.903 51.7501 129.866C51.6614 129.828 51.5658 129.81 51.4696 129.812H50.8388V134.363H51.4696Z" fill="white"/>
<path d="M54.9833 128.654H57.0678L58.4915 137.826H58.5275L59.9692 128.654H62.0237V139.916H60.6721V130.959L59.3084 139.916H57.7045L56.3589 130.959V139.916H54.9833V128.654Z" fill="white"/>
<path d="M63.5014 128.654H67.2799V129.782H64.877V133.592H66.9675V134.721H64.877V138.794H67.2799V139.916H63.4774L63.5014 128.654Z" fill="white"/>
<path d="M68.71 128.654H69.7973L71.5454 135.378H71.5754V128.654H72.933V139.916H71.8337L70.0857 133.168V139.916H68.7401L68.71 128.654Z" fill="white"/>
<path d="M74.0869 128.654H78.34V129.782H76.8922V139.934H75.5106V129.782H74.0869V128.654Z" fill="white"/>
</svg>
