<svg width="168" height="28" viewBox="0 0 168 28" fill="none" xmlns="http://www.w3.org/2000/svg">
<path d="M7.75212 13.5001C7.75212 14.4243 7.85196 15.2215 8.06453 15.8797C8.27226 16.5432 8.63941 17.1581 9.17243 17.7382C9.70867 18.3096 10.4913 18.7473 11.5203 19.046C12.5525 19.3483 13.8327 19.4976 15.3642 19.4976H26.7734V26.6224H15.3271C10.1161 26.6224 6.25452 25.4083 3.75207 22.9836C1.24962 20.5606 0 17.3977 0 13.4985C0 9.60086 1.24962 6.438 3.75207 4.01156C6.25452 1.5886 10.1161 0.376251 15.3271 0.376251H26.7734V7.50097H15.3642C12.4414 7.50097 10.443 8.02551 9.36889 9.07459C8.29158 10.1237 7.75212 11.6001 7.75212 13.5001Z" fill="white"/>
<path d="M50.4988 26.9965H47.6807C44.9205 26.9965 42.5148 26.6421 40.4503 25.9439C38.3891 25.2404 36.7433 24.2695 35.5162 23.0225C34.2843 21.7702 33.3761 20.3563 32.7851 18.7636C32.1925 17.1779 31.8994 15.4218 31.8994 13.4973C31.8994 11.5746 32.1925 9.81864 32.7851 8.23285C33.3761 6.64013 34.2843 5.22283 35.5162 3.97401C36.7433 2.72518 38.3891 1.74905 40.4503 1.05082C42.5148 0.350851 44.9205 0 47.6807 0H50.4988C53.254 0 55.6631 0.350851 57.7292 1.05082C59.7888 1.74905 61.4377 2.72518 62.6648 3.97401C63.8903 5.22283 64.8049 6.64013 65.3911 8.23285C65.9837 9.81864 66.2784 11.5746 66.2784 13.4973C66.2784 15.4202 65.9853 17.1779 65.3911 18.7636C64.8049 20.3563 63.8919 21.7702 62.6648 23.0225C61.4377 24.2713 59.7888 25.2422 57.7292 25.9439C55.6631 26.6404 53.254 26.9965 50.4988 26.9965ZM47.7162 19.8717H50.4617C53.5229 19.8717 55.6245 19.3142 56.771 18.2026C57.9208 17.091 58.494 15.5243 58.494 13.4991C58.494 11.4738 57.9128 9.90722 56.7582 8.79213C55.597 7.68226 53.4988 7.12472 50.4617 7.12472H47.7451C46.1541 7.12472 44.7998 7.27931 43.7 7.59541C42.6017 7.90632 41.7596 8.37181 41.1814 8.98146C40.6033 9.59632 40.1959 10.2633 39.9657 10.9858C39.7321 11.7136 39.6162 12.5507 39.6162 13.5008C39.6162 15.5278 40.2039 17.0928 41.3714 18.2044C42.5421 19.3142 44.6581 19.8717 47.7162 19.8717Z" fill="white"/>
<path d="M79.3999 0.376221V19.4959H96.4115V26.6206H72.1357V0.376221H79.3999Z" fill="white"/>
<path d="M145.799 26.6206V18.7073L130.874 0.376221H141.58L149.463 12.3556L157.286 0.376221H168L153.066 18.7073V26.6206H145.799Z" fill="white"/>
<path d="M126.25 4.01153C123.748 1.58857 119.887 0.376221 114.675 0.376221H102.9V7.47141H106.372V7.50094H114.638C117.537 7.50094 119.522 8.02548 120.603 9.07456C121.681 10.1202 122.219 11.5982 122.219 13.4984C122.219 14.4224 122.116 15.2196 121.907 15.878C121.7 16.5415 121.328 17.1564 120.792 17.7364C120.259 18.3078 119.478 18.7455 118.445 19.0443C117.418 19.3465 116.149 19.4959 114.638 19.4959H106.372H113.073H102.9V26.6206H114.675C119.887 26.6206 123.748 25.4065 126.25 22.9818C128.752 20.5589 130.007 17.396 130.007 13.4966C130.007 9.60083 128.752 6.4397 126.25 4.01153Z" fill="white"/>
</svg>
