<svg width="156" height="100" viewBox="0 0 156 100" fill="none" xmlns="http://www.w3.org/2000/svg">
<g clip-path="url(#clip0_3_422)">
<path d="M96.4272 30.4088V19.2453C96.4272 18.6478 95.9539 18.2076 95.3859 18.2076H89.8956C89.3277 18.2076 88.8544 18.6792 88.8544 19.2453V30.4403H96.4272V30.4088Z" fill="white"/>
<path d="M56.1646 33.9308V27.2955C56.1646 26.7295 55.6913 26.2578 55.1233 26.2578H49.6331C49.0651 26.2578 48.5918 26.7295 48.5918 27.2955V33.9308H56.1646Z" fill="white"/>
<path d="M85.2573 26.2579V11.3522C85.2573 11.3522 84.3738 10.9434 82.8592 10.9434C81.534 10.9434 80.4612 11.3522 80.4612 11.3522V26.2579H85.2573Z" fill="white"/>
<path d="M100.592 26.2579V30.4088H104.788V26.2579H100.592Z" fill="white"/>
<path d="M63.9902 8.71057V12.893H68.1553V8.71057H63.9902Z" fill="white"/>
<path d="M68.1554 26.2579V18.7736C68.1554 18.7736 66.6408 18.0818 63.9903 18.0818C61.6869 18.0818 59.8253 18.7736 59.8253 18.7736V26.2579H68.1554Z" fill="white"/>
<path d="M99.8981 53.2075V44.6226C99.8981 44.6226 97.8786 43.7107 94.3762 43.7107C91.3471 43.7107 88.8544 44.6226 88.8544 44.6226V53.2075H99.8981Z" fill="white"/>
<path d="M70.301 30.4088L74.0558 0L77.8107 30.4088H70.301Z" fill="white"/>
<path d="M77.4944 41.2894L70.3633 46.824V53.2077H84.5939V46.824L77.4944 41.2894Z" fill="white"/>
<path d="M112.267 38.4277L107.786 41.9183V45.9435H116.779V41.9183L112.267 38.4277Z" fill="white"/>
<path d="M77.7468 36.3207C77.7468 38.3647 76.106 40 74.055 40C72.0356 40 70.3633 38.3647 70.3633 36.3207C70.3633 34.2767 72.0041 32.6415 74.055 32.6415C76.0744 32.6415 77.7468 34.3081 77.7468 36.3207Z" fill="white"/>
<path d="M94.2812 33.9308V40.5031H104.789V33.9308H94.2812Z" fill="white"/>
<path d="M59.8253 53.2076V57.7673H68.1554V53.2076H59.8253Z" fill="white"/>
<path d="M70.3633 61.3208V65.8805H84.5939V61.3208H70.3633Z" fill="white"/>
<path d="M85.4783 28.9623H85.1312C84.1846 32.7044 79.6094 34.151 79.6094 37.5157C79.6094 40.6289 82.1336 41.9497 82.1336 41.9497H88.4759C88.4759 41.9497 91.0001 40.6289 91.0001 37.5157C91.0001 34.151 86.4249 32.7044 85.4783 28.9623Z" fill="white"/>
<path d="M68.1554 45.9434V35.1258C68.1554 31.3208 63.9903 28.9937 63.9903 28.9937C63.9903 28.9937 59.8253 31.3208 59.8253 35.1258V45.9434H68.1554Z" fill="white"/>
<path d="M45.216 45.9434V41.4151C45.216 39.7799 43.8908 38.4277 42.2185 38.4277C40.5777 38.4277 39.2209 39.7484 39.2209 41.4151V45.9434H45.216Z" fill="white"/>
<path d="M54.5558 45.9434V41.4151C54.5558 39.7799 53.2306 38.4277 51.5582 38.4277C49.9175 38.4277 48.5607 39.7484 48.5607 41.4151V45.9434H54.5558Z" fill="white"/>
<path d="M93.1459 8.71071V3.67926C93.1459 2.48429 92.1678 1.54089 91.0003 1.54089C89.8013 1.54089 88.8231 2.51574 88.8231 3.67926V8.71071H93.1459Z" fill="white"/>
<path d="M9.52943 95.7233C11.0755 95.7233 12.4955 95.5975 14.1678 93.4591L17.0707 96.0692C15.209 98.4906 12.0221 100.031 9.43477 99.9371C7.8571 99.9371 6.46875 99.6226 5.26972 98.9937C4.10225 98.3648 3.12409 97.5157 2.33525 96.478C1.54642 95.4403 0.946905 94.2453 0.568265 92.9245C0.189624 91.6038 -0.03125 90.283 -0.03125 88.8994C-0.03125 87.5472 0.15807 86.195 0.568265 84.9057C0.946905 83.6164 1.54642 82.4214 2.33525 81.4151C3.12409 80.3774 4.10225 79.5598 5.26972 78.9308C6.46875 78.3019 7.82555 77.9874 9.40322 77.9874C10.9809 77.9874 12.3692 78.3019 13.5367 78.9308C14.7042 79.5598 15.7139 80.3774 16.5027 81.4151L13.2527 83.9623C11.9275 82.4843 11.0124 81.8868 9.49788 81.8868C5.90079 81.8868 4.07069 85.4088 4.07069 88.8994C4.10225 92.4843 5.93234 95.7233 9.52943 95.7233ZM132.272 93.522C132.398 96.7296 136.627 97.5786 138.709 95.0943L140.981 97.5157C140.728 97.7988 140.476 98.0189 140.287 98.2076C140.097 98.3962 139.908 98.5535 139.719 98.7107C139.529 98.8365 139.34 98.9623 139.151 99.0881C138.961 99.1824 138.772 99.3082 138.551 99.4025C137.668 99.8113 136.595 100.031 135.396 100.031C130.821 100.031 128.391 97.3585 128.391 92.0126C128.391 88.6793 129.527 85.8491 132.335 84.5283C133.124 84.1509 134.039 83.9623 135.017 83.9623C139.088 83.9623 141.486 87.2013 141.486 91.4151V93.5535H132.272V93.522ZM143 84.0566L146.724 84.151V90.9434H146.85L151.394 84.151H155.685L149.974 91.8554L156 99.7799H151.678L146.818 92.956H146.724V99.7799L143 99.6855V84.0566ZM126.877 95.5975C126.813 98.8679 123.627 99.6855 121.733 99.6855H114.318V84.1195H121.512C123.847 84.1195 126.624 84.8113 126.624 88.1761C126.624 90.9434 124.573 91.5094 123.784 91.6352C124.636 91.8239 126.94 92.3271 126.877 95.5975ZM122.585 88.8365C122.585 87.7044 122.049 87.4843 120.913 87.4843H118.073V90.3459H120.913C122.27 90.3459 122.585 89.6226 122.585 88.8365ZM122.932 94.9686C122.932 93.8365 122.491 93.522 121.449 93.522H118.105V96.3522H121.102C122.27 96.3522 122.932 96.3837 122.932 94.9686ZM137.762 90.3459C137.731 88.3648 136.69 87.1069 135.175 87.1069C133.629 87.1069 132.272 88.1132 132.272 90.3459H137.762ZM102.423 99.6855V78.2076H106.272V99.6855H102.423ZM96.2066 99.6855L92.1047 91.8868L88.0027 99.6855H83.5537L89.5489 88.6793L83.9324 78.2076H88.3498L92.0731 85.7547L95.8595 78.2076H100.277L94.6605 88.6793L100.656 99.6855H96.2066ZM78.3474 99.6855L74.2455 91.8868L70.1435 99.6855H65.6945L71.6896 88.6793L66.0731 78.2076H70.4906L74.2139 85.7547L78.0003 78.2076H82.4178L76.8013 88.6793L82.7964 99.6855H78.3474ZM55.0925 99.6855L54.7139 98.3019C54.0828 98.9623 53.3571 99.4654 52.6314 99.6855C51.9372 99.9057 51.2115 100 50.5173 100C48.8134 100 47.5197 99.4654 46.6362 98.3648C45.7212 97.2642 45.2794 95.6289 45.2794 93.3962V84.151H49.0658V92.956C49.0658 94.0252 49.2552 94.9057 49.6022 95.566C49.9493 96.2264 50.5804 96.5723 51.4639 96.5723C52.1896 96.5723 52.8207 96.4151 53.294 96.1006C53.7989 95.7862 54.209 95.5031 54.493 95.2201V84.151H58.2794V99.6855H55.0925ZM32.7212 84.151H36.476H40.2624H44.0173V87.4528H40.2624V99.6855H36.476V87.4843H32.7212V84.151ZM28.1775 99.6855L27.7988 98.3019C27.1678 98.9623 26.4421 99.4654 25.7163 99.6855C25.0221 99.9057 24.2964 100 23.6022 100C21.8984 100 20.6047 99.4654 19.7212 98.3648C18.8061 97.2642 18.3644 95.6289 18.3644 93.3962V84.151H22.1508V92.956C22.1508 94.0252 22.3401 94.9057 22.6872 95.566C23.0343 96.2264 23.6654 96.5723 24.5488 96.5723C25.2746 96.5723 25.9056 96.4151 26.3789 96.1006C26.8838 95.7862 27.294 95.5031 27.578 95.2201V84.151H31.3644V99.6855H28.1775Z" fill="white"/>
</g>
<defs>
<clipPath id="clip0_3_422">
<rect width="156" height="100" fill="white"/>
</clipPath>
</defs>
</svg>
