<svg width="143" height="26" viewBox="0 0 143 26" fill="none" xmlns="http://www.w3.org/2000/svg">
<g clip-path="url(#clip0_3_416)">
<mask id="mask0_3_416" style="mask-type:luminance" maskUnits="userSpaceOnUse" x="0" y="0" width="143" height="26">
<path d="M143 0H0V26H143V0Z" fill="white"/>
</mask>
<g mask="url(#mask0_3_416)">
<path d="M49.7893 0L40.3217 25.97H45.3655L47.2252 20.8719H53.8751L55.7066 15.8339H49.0567L52.4098 6.65742L59.4539 25.97H64.4981L55.0304 0H49.7893ZM40.3217 0.0299884H23.2463V5.03806H29.4454V26H34.1509V5.03806H40.3217V0.0299884ZM8.7068 0.0299884C5.29734 0.0299884 2.226 1.49942 0.0281773 3.8985L3.3531 7.43713C4.70562 5.96771 6.59347 5.03806 8.7068 5.03806C12.8207 5.03806 16.1739 8.60671 16.1739 12.985C16.1739 17.3634 12.8207 20.932 8.7068 20.932C6.62168 20.932 4.70562 20.0024 3.3531 18.5328L0 22.1014C2.19783 24.5005 5.29734 25.97 8.67864 25.97C15.4131 25.97 20.8794 20.1523 20.8794 13.015C20.8794 5.87775 15.4131 0.0299884 8.7068 0.0299884ZM15.4975 10.496H5.63548L5.69184 15.534H13.666L15.4975 10.496ZM126.263 0H121.501V25.97H126.263V15.534H136.322L138.153 10.496H126.263V0ZM138.238 0V25.97H143V0H138.238ZM104.594 0C97.86 0 92.4216 5.81776 92.4216 12.955C92.4216 20.0922 97.888 25.91 104.594 25.91C111.3 25.91 116.767 20.0922 116.767 12.955C116.795 5.78777 111.329 0 104.594 0ZM104.594 20.902C100.48 20.902 97.1271 17.3333 97.1271 12.955C97.1271 8.57669 100.48 5.00808 104.594 5.00808C108.708 5.00808 112.061 8.57669 112.061 12.955C112.061 17.3333 108.708 20.902 104.594 20.902ZM76.3045 0L66.8368 25.97H71.8524L78.8964 6.65742L85.9408 25.97H90.9848L81.5173 0H76.3045Z" fill="white"/>
</g>
</g>
<defs>
<clipPath id="clip0_3_416">
<rect width="143" height="26" fill="white"/>
</clipPath>
</defs>
</svg>
