<svg width="138" height="40" viewBox="0 0 138 40" fill="none" xmlns="http://www.w3.org/2000/svg">
<path d="M21.6975 9.48058H34.9643V4.67538H15.994V34.8053H21.5735V21.9481H32.2365V17.2728H21.5735V9.48058H21.6975Z" fill="white"/>
<path d="M44.3879 12.9871C38.1884 12.9871 34.4688 17.2728 34.4688 24.1559C34.4688 31.039 38.4364 35.3247 44.3879 35.3247C50.3394 35.3247 54.431 30.9091 54.431 24.1559C54.431 17.2728 50.4634 12.9871 44.3879 12.9871ZM44.3879 30.9091C41.4121 30.9091 39.8003 28.5715 39.8003 24.026C39.8003 19.4806 41.4121 17.1429 44.3879 17.1429C47.4876 17.1429 49.0995 19.4806 49.0995 24.026C49.0995 28.5715 47.3636 30.9091 44.3879 30.9091Z" fill="white"/>
<path d="M67.9462 12.9869C65.2184 12.9869 63.1106 14.5454 61.8707 17.4025V13.5064H56.9111V34.935H62.1187V25.974C62.1187 23.7662 62.2427 21.4285 63.8545 19.8701C64.8464 18.8311 66.0863 18.4415 67.8222 18.4415C67.9462 18.4415 68.0702 18.4415 68.0702 18.4415C68.0702 18.4415 68.3181 18.4415 68.4421 18.4415H68.6901V12.9869H68.4421C68.3181 12.9869 68.1941 12.9869 67.9462 12.9869Z" fill="white"/>
<path d="M93.9838 12.987C91.2561 12.987 89.2722 14.2857 87.7844 16.8831C86.6685 14.2857 84.8086 12.987 82.0809 12.987C79.6011 12.987 77.7412 14.026 76.5013 16.3636V13.5065H71.4178V34.9351H76.6253V22.5974C76.6253 19.4805 77.9892 17.5325 80.221 17.5325C82.7008 17.5325 83.1968 19.7403 83.1968 21.6883V34.9351H88.4043V22.5974C88.4043 19.4805 89.6442 17.6623 92 17.6623C94.1078 17.6623 94.9757 19.0909 94.9757 21.9481V35.0649H100.183V20.9091C100.307 15.8442 97.9515 12.987 93.9838 12.987Z" fill="white"/>
<path d="M121.757 34.4156C121.385 32.987 121.138 30.7792 121.138 28.052V21.8182C121.138 15.7143 118.41 12.987 112.334 12.987C107.127 12.987 103.655 15.8442 103.283 20.3896V20.6494H108.739V20.3896C108.987 18.1818 110.102 17.013 112.334 17.013C114.814 17.013 115.806 18.3117 115.806 21.1688V21.4286L111.838 21.9481C108.615 22.4675 106.755 22.987 105.267 23.8961C103.531 24.9351 102.787 26.7533 102.787 28.8312C102.787 32.5974 105.639 35.3247 109.854 35.3247C112.706 35.3247 115.062 34.026 116.302 31.9481C116.426 32.8571 116.55 33.7662 116.55 34.5455V34.8052H121.881L121.757 34.4156ZM111.342 31.1688C109.359 31.1688 108.119 30.1299 108.119 28.5714C108.119 27.013 109.235 25.974 111.714 25.5844L115.93 24.9351V25.974C116.054 29.0909 114.194 31.1688 111.342 31.1688Z" fill="white"/>
</svg>
