<svg width="132" height="40" viewBox="0 0 132 40" fill="none" xmlns="http://www.w3.org/2000/svg">
<g clip-path="url(#clip0_3_346)">
<path d="M79.3922 0L56.2715 22.523H62.7071L79.3922 6.27283L96.0773 22.523H102.518L79.3922 0Z" fill="white"/>
<path d="M26.0405 5.4374H0.447052V22.523H4.7266V9.50472H21.7377L26.0405 5.4374Z" fill="white"/>
<path d="M128.466 18.5082H110.449C109.517 18.5082 108.148 17.9926 108.148 16.5509V11.3617C108.148 9.8532 109.396 9.53813 110.449 9.53813H128.452L131.711 5.48514H109.187C106.136 5.48514 103.999 7.58086 103.859 10.7077V17.8685C103.859 20.3747 106.299 22.4991 109.187 22.4991H131.721L128.466 18.5082Z" fill="white"/>
<path d="M29.8032 15.7537L35.666 10.0251L41.5335 15.7537H29.8032ZM54.0601 22.5039L35.6753 4.60675L17.2765 22.523H22.8646L25.9846 19.4868H45.3148V19.4534L48.4627 22.523L54.0601 22.5039Z" fill="white"/>
<path d="M0.824243 31.6028V34.4671C0.824243 35.5365 0.80096 36.4292 0.745079 37.3314H0.773019C1.14817 36.5613 1.56321 35.8124 2.01637 35.0877L4.19107 31.6028H5.06654V38.3721H4.25626V35.5078C4.25626 34.4146 4.25626 33.5983 4.33543 32.7533H4.30749C3.93998 33.5396 3.51987 34.2988 3.05017 35.0257L0.931348 38.3721H0V31.6028H0.824243Z" fill="white"/>
<path d="M7.45119 33.5076V35.4696H9.74696V33.5076H10.6317V38.3721H9.74696V36.1714H7.45119V38.3721H6.56641V33.5076H7.45119Z" fill="white"/>
<path d="M15.3118 33.5076V34.2046H13.7984V38.3721H12.9136V34.2046H11.3955V33.5076H15.3118Z" fill="white"/>
<path d="M16.448 36.1045C16.4308 36.3324 16.4623 36.5614 16.5403 36.7754C16.6184 36.9895 16.741 37.1835 16.8998 37.344C17.0585 37.5045 17.2495 37.6275 17.4594 37.7045C17.6693 37.7814 17.8931 37.8105 18.1151 37.7897C18.5758 37.8054 19.0345 37.7208 19.4609 37.5415L19.6192 38.1907C19.1045 38.409 18.5509 38.5147 17.994 38.501C17.6736 38.5246 17.352 38.4771 17.0511 38.3617C16.7502 38.2464 16.4771 38.0659 16.2503 37.8326C16.0236 37.5993 15.8486 37.3186 15.7373 37.0097C15.6259 36.7008 15.5809 36.3709 15.6051 36.0425C15.6051 34.5721 16.4666 33.4264 17.8822 33.4264C19.4795 33.4264 19.8893 34.8156 19.8893 35.7083C19.8921 35.8473 19.8827 35.9863 19.8614 36.1236L16.448 36.1045ZM19.0371 35.4696C19.0371 34.9159 18.8089 34.0375 17.8124 34.0375C17.4519 34.0567 17.1118 34.215 16.8604 34.4806C16.609 34.7463 16.465 35.0996 16.4573 35.4696H19.0371Z" fill="white"/>
<path d="M24.68 33.5076V38.3721H23.7952V34.2045H22.1374V35.4505C22.1374 36.8158 22.007 37.7324 21.3784 38.143C21.1013 38.3594 20.7574 38.4661 20.4098 38.4437L20.3213 37.7515C20.489 37.7207 20.6481 37.6522 20.787 37.551C21.2526 37.2168 21.2852 36.5342 21.2852 35.4505V33.5076H24.68Z" fill="white"/>
<path d="M29.8035 33.5076V38.3721H28.9187V34.2045H27.2702V35.4505C27.2702 36.8158 27.1398 37.7324 26.5065 38.143C26.2309 38.3586 25.8887 38.4654 25.5426 38.4437L25.4541 37.7515C25.6219 37.7207 25.7809 37.6522 25.9198 37.551C26.3855 37.2168 26.418 36.5342 26.418 35.4505V33.5076H29.8035Z" fill="white"/>
<path d="M32.0713 33.5076V35.5604C32.0713 36.3242 32.048 36.8159 32.0108 37.5081H32.0387C32.3414 36.9161 32.5044 36.5533 32.835 36.0139L34.3485 33.4981H35.3916V38.3722H34.5394V36.3146C34.5394 35.5222 34.5394 35.1069 34.5999 34.3144C34.2786 34.9445 34.0784 35.3408 33.785 35.8325C33.3193 36.5867 32.7838 37.5176 32.2716 38.3722H31.2471V33.5076H32.0713Z" fill="white"/>
<path d="M39.7822 33.5076V34.2141H37.6727V38.3721H36.7879V33.5076H39.7822Z" fill="white"/>
<path d="M40.9797 36.1045C40.9633 36.3322 40.9954 36.5608 41.0737 36.7745C41.152 36.9882 41.2747 37.1819 41.4333 37.3421C41.5918 37.5024 41.7825 37.6255 41.992 37.7027C42.2015 37.78 42.425 37.8097 42.6468 37.7897C43.1075 37.8054 43.5661 37.7208 43.9926 37.5415L44.1509 38.1907C43.6345 38.409 43.0795 38.5147 42.521 38.501C42.2006 38.5246 41.879 38.4771 41.5781 38.3617C41.2772 38.2464 41.0041 38.0659 40.7774 37.8326C40.5507 37.5993 40.3757 37.3186 40.2643 37.0097C40.153 36.7008 40.1079 36.3709 40.1321 36.0425C40.1321 34.5721 40.9983 33.4264 42.4139 33.4264C44.0066 33.4264 44.421 34.8156 44.421 35.7083C44.4249 35.8476 44.414 35.9868 44.3884 36.1236L40.9797 36.1045ZM43.5735 35.4696C43.5967 35.2908 43.5824 35.109 43.5315 34.9364C43.4805 34.7637 43.3942 34.6042 43.2782 34.4686C43.1622 34.333 43.0193 34.2243 42.859 34.15C42.6987 34.0756 42.5247 34.0373 42.3488 34.0375C41.9878 34.0566 41.6471 34.2148 41.395 34.4803C41.1429 34.7458 40.9979 35.0992 40.989 35.4696H43.5735Z" fill="white"/>
<path d="M46.3674 33.5076V35.4696H48.6679V33.5076H49.5526V38.3721H48.6679V36.1714H46.3674V38.3721H45.4873V33.5076H46.3674Z" fill="white"/>
<path d="M54.251 33.5076V34.2046H52.7329V38.3721H51.8482V34.2046H50.3347V33.5076H54.251Z" fill="white"/>
<path d="M55.8809 33.5076V35.4696H58.1813V33.5076H59.0661V38.3721H58.1813V36.1714H55.8809V38.3721H54.9961V33.5076H55.8809Z" fill="white"/>
<path d="M61.3577 33.5076V35.1593C61.6163 35.1164 61.878 35.0956 62.14 35.0973C63.1878 35.0973 64.2495 35.5317 64.2495 36.7347C64.2568 36.9506 64.2142 37.1652 64.1252 37.361C64.0362 37.5568 63.9032 37.7282 63.7373 37.8613C63.1655 38.2689 62.4766 38.4673 61.7814 38.4246C61.3458 38.4252 60.9106 38.4013 60.4775 38.353V33.5076H61.3577ZM61.3577 37.7515C61.5613 37.7805 61.7668 37.7932 61.9724 37.7897C62.6522 37.7897 63.3694 37.5176 63.3694 36.7538C63.3694 35.99 62.6662 35.7322 62.0003 35.7322C61.7817 35.7293 61.5633 35.7485 61.3484 35.7895L61.3577 37.7515ZM65.7443 33.5076V38.3721H64.8735V33.5076H65.7443Z" fill="white"/>
<path d="M67.9884 33.5076V35.5603C67.9884 36.3241 67.9651 36.8158 67.9279 37.5081H67.9558C68.2585 36.9161 68.4215 36.5533 68.7521 36.0138L70.2656 33.498H71.2994V38.3721H70.4565V36.3146C70.4565 35.5221 70.4565 35.1068 70.517 34.3144C70.1957 34.9445 69.9955 35.3407 69.7021 35.8324C69.2364 36.5867 68.7009 37.5176 68.184 38.3721H67.1642V33.5076H67.9884ZM68.5612 31.5312C68.5891 31.9609 68.7987 32.295 69.2038 32.295C69.609 32.295 69.8325 31.9609 69.8837 31.5312H70.517C70.5179 31.7058 70.4829 31.8787 70.4144 32.0385C70.3459 32.1984 70.2454 32.3417 70.1194 32.4592C69.9934 32.5767 69.8447 32.6657 69.6829 32.7205C69.5212 32.7753 69.35 32.7946 69.1806 32.7772C69.0151 32.7925 68.8483 32.7711 68.6916 32.7146C68.5349 32.658 68.3918 32.5676 68.2722 32.4495C68.1525 32.3313 68.059 32.1882 67.998 32.0297C67.937 31.8713 67.9099 31.7013 67.9186 31.5312H68.5612Z" fill="white"/>
<path d="M79.1363 33.5982V37.7992H79.6392L79.588 39.9904H78.8941L78.8569 38.4532H75.4947L75.4388 40H74.7543L74.717 37.8231H75.1268C75.3303 37.5183 75.4874 37.1834 75.5925 36.8301C75.7997 36.1912 75.9051 35.5223 75.9045 34.849V33.5982H79.1363ZM76.6682 35.0686C76.6746 35.6844 76.5898 36.2977 76.4168 36.8874C76.3196 37.2006 76.1917 37.503 76.0349 37.7897H78.2748V34.2713H76.6682V35.0686Z" fill="white"/>
<path d="M81.1488 36.1953C81.1317 36.4227 81.1631 36.6512 81.2409 36.8649C81.3187 37.0786 81.4409 37.2724 81.5991 37.4328C81.7573 37.5932 81.9477 37.7163 82.157 37.7936C82.3664 37.8709 82.5896 37.9005 82.8112 37.8805C83.2724 37.8971 83.7316 37.8107 84.157 37.6274L84.32 38.2624C83.8053 38.4807 83.2517 38.5864 82.6948 38.5727C82.374 38.597 82.0519 38.55 81.7504 38.435C81.4489 38.32 81.1752 38.1396 80.948 37.9062C80.7208 37.6728 80.5454 37.3918 80.4337 37.0826C80.3221 36.7733 80.2769 36.443 80.3013 36.1141C80.3013 34.6438 81.1674 33.4981 82.5831 33.4981C84.1803 33.4981 84.5901 34.8873 84.5901 35.78C84.5941 35.9192 84.5831 36.0585 84.5575 36.1953H81.1488ZM83.7379 35.5604C83.7612 35.3816 83.7469 35.1998 83.6959 35.0271C83.645 34.8545 83.5586 34.695 83.4427 34.5593C83.3267 34.4237 83.1837 34.3151 83.0234 34.2407C82.8631 34.1664 82.6892 34.128 82.5132 34.1282C82.1523 34.1463 81.8116 34.3043 81.56 34.5702C81.3084 34.8361 81.1648 35.19 81.1581 35.5604H83.7379Z" fill="white"/>
<path d="M85.6561 33.6603C86.1681 33.5849 86.6849 33.5482 87.2021 33.5505C88.0217 33.5505 89.3675 33.689 89.3675 34.7679C89.3536 35.0453 89.2439 35.3087 89.0579 35.5107C88.8719 35.7128 88.6218 35.8404 88.3523 35.8706C89.0695 35.9757 89.591 36.348 89.591 37.0689C89.591 38.3435 87.9845 38.501 87.0298 38.501C86.4897 38.501 85.9169 38.458 85.6561 38.439V33.6603ZM86.499 37.89C86.7504 37.89 86.9274 37.9234 87.2021 37.9234C87.8029 37.9234 88.6876 37.7897 88.6876 37.0784C88.6876 36.3671 87.9752 36.2239 87.1416 36.2239H86.499V37.89ZM86.499 35.651H87.1602C87.8122 35.651 88.4874 35.4601 88.4874 34.8777C88.4874 34.4003 88.0636 34.1616 87.1835 34.1616C86.9547 34.163 86.7262 34.1774 86.499 34.2046V35.651Z" fill="white"/>
<path d="M91.198 36.1953C91.1809 36.4231 91.2124 36.6521 91.2904 36.8662C91.3685 37.0803 91.4911 37.2743 91.6499 37.4348C91.8086 37.5952 91.9996 37.7182 92.2095 37.7952C92.4194 37.8722 92.6432 37.9013 92.8652 37.8805C93.3263 37.8971 93.7855 37.8107 94.211 37.6274L94.3693 38.2624C93.8545 38.4807 93.301 38.5864 92.7441 38.5727C92.4225 38.5984 92.0994 38.5525 91.7967 38.4382C91.4941 38.3238 91.2192 38.1436 90.991 37.9101C90.7627 37.6765 90.5864 37.395 90.4743 37.085C90.3621 36.775 90.3167 36.4438 90.3412 36.1141C90.3412 34.6438 91.2027 33.4981 92.6184 33.4981C94.2156 33.4981 94.6254 34.8873 94.6254 35.78C94.6282 35.919 94.6188 36.058 94.5975 36.1953H91.198ZM93.7872 35.5604C93.7872 35.0066 93.559 34.1282 92.5625 34.1282C92.2016 34.1463 91.8608 34.3043 91.6093 34.5702C91.3577 34.8361 91.214 35.19 91.2074 35.5604H93.7872Z" fill="white"/>
<path d="M99.4393 33.5983V38.4628H98.5545V34.2952H96.8874V35.5412C96.8874 36.9065 96.757 37.8231 96.1284 38.2337C95.8527 38.4493 95.5105 38.5561 95.1644 38.5344L95.0713 37.8422C95.239 37.8114 95.3981 37.7429 95.537 37.6417C96.0026 37.3075 96.0352 36.6249 96.0352 35.5412V33.5983H99.4393Z" fill="white"/>
<path d="M105.275 35.9947C105.302 36.332 105.259 36.6713 105.148 36.9901C105.037 37.3088 104.861 37.5998 104.632 37.8436C104.403 38.0873 104.126 38.2784 103.819 38.4041C103.513 38.5298 103.184 38.5872 102.854 38.5726C102.537 38.5793 102.222 38.5182 101.929 38.3934C101.636 38.2685 101.372 38.0825 101.153 37.8472C100.934 37.612 100.765 37.3326 100.657 37.0268C100.549 36.721 100.504 36.3955 100.526 36.0711C100.5 35.737 100.543 35.4012 100.652 35.0854C100.762 34.7696 100.935 34.481 101.16 34.2383C101.385 33.9956 101.658 33.8042 101.96 33.6767C102.263 33.5491 102.588 33.4882 102.914 33.498C103.234 33.4843 103.554 33.5402 103.851 33.6619C104.149 33.7836 104.418 33.9683 104.641 34.2041C104.863 34.4398 105.035 34.7212 105.145 35.0298C105.254 35.3384 105.299 35.6672 105.275 35.9947ZM101.429 36.0424C101.429 37.107 102.03 37.909 102.896 37.909C103.762 37.909 104.372 37.1165 104.372 35.9995C104.372 35.1736 103.958 34.1377 102.914 34.1377C101.871 34.1377 101.429 35.1259 101.429 36.0424Z" fill="white"/>
<path d="M110.365 33.5982V38.4628H109.48V34.2952H107.222V38.4628H106.36V33.5982H110.365Z" fill="white"/>
<path d="M111.878 33.5982H112.963L113.838 36.052C113.969 36.4148 114.169 37.0068 114.281 37.3887C114.392 37.0163 114.662 36.2525 114.863 35.7226L115.636 33.5982H116.73L117.07 38.4628H116.227L116.12 36.1427C116.097 35.608 116.059 34.997 116.036 34.405H116.008C115.878 34.849 115.738 35.2261 115.463 35.9804L114.532 38.4341H113.899L113.037 36.0233C112.874 35.5698 112.665 34.8681 112.544 34.4146H112.506C112.506 34.9874 112.464 35.6319 112.437 36.1618L112.301 38.4628H111.491L111.878 33.5982Z" fill="white"/>
<path d="M118.747 36.1953C118.73 36.4231 118.761 36.6521 118.839 36.8661C118.917 37.0802 119.04 37.2743 119.199 37.4347C119.357 37.5952 119.548 37.7182 119.758 37.7952C119.968 37.8721 120.192 37.9012 120.414 37.8804C120.875 37.897 121.334 37.8107 121.76 37.6274L121.918 38.2623C121.404 38.4812 120.85 38.5869 120.293 38.5726C119.973 38.5962 119.651 38.5487 119.35 38.4334C119.049 38.318 118.776 38.1375 118.549 37.9042C118.323 37.6709 118.148 37.3902 118.036 37.0813C117.925 36.7724 117.88 36.4425 117.904 36.1141C117.904 34.6438 118.766 33.498 120.181 33.498C121.778 33.498 122.193 34.8872 122.193 35.7799C122.195 35.9191 122.184 36.0581 122.16 36.1953H118.747ZM121.336 35.5603C121.336 35.0066 121.108 34.1282 120.111 34.1282C119.75 34.1463 119.41 34.3043 119.158 34.5701C118.907 34.836 118.763 35.19 118.756 35.5603H121.336Z" fill="white"/>
<path d="M124.121 33.5982V35.5603H126.422V33.5982H127.302V38.4628H126.422V36.2811H124.121V38.4819H123.236V33.5982H124.121Z" fill="white"/>
<path d="M132 33.5983V34.2952H130.486V38.4628H129.601V34.2952H128.088V33.5983H132Z" fill="white"/>
</g>
<defs>
<clipPath id="clip0_3_346">
<rect width="132" height="40" fill="white"/>
</clipPath>
</defs>
</svg>
