<svg width="149" height="74" viewBox="0 0 149 74" fill="none" xmlns="http://www.w3.org/2000/svg">
<g clip-path="url(#clip0_3_320)">
<path d="M126.854 36.8408C126.918 36.809 126.939 36.7878 126.96 36.7878C131.349 36.8249 135.769 36.2571 140.101 37.1804C144.432 38.1037 147.644 41.1176 148.611 45.8879C149.309 48.9861 149.054 52.2256 147.88 55.1737C147.333 56.6055 146.465 57.8903 145.344 58.9276C144.224 59.965 142.881 60.7268 141.42 61.1537C139.777 61.6403 138.08 61.9149 136.369 61.9709C133.394 62.1035 130.403 62.0133 127.433 62.0133C127.259 62.0133 127.086 61.9868 126.854 61.9709V36.8408ZM132.111 49.3369V56.4896C132.111 56.9035 132.111 57.259 132.679 57.2378C134.292 57.1953 135.922 57.2908 137.525 57.1317C139.901 56.9035 141.835 55.8157 142.829 53.4651C143.671 51.3899 143.854 49.1022 143.355 46.9173C142.734 43.8025 140.647 41.8658 137.572 41.6111C135.996 41.4837 134.445 41.5421 132.884 41.4625C132.258 41.4307 132.116 41.6694 132.127 42.2637V49.3316" fill="white"/>
<path d="M97.208 62.0133C95.1054 62.0133 93.2446 62.0133 91.3628 62.0133C91.1478 61.9666 90.9593 61.8372 90.8371 61.6525C88.8344 58.9994 86.8685 56.3463 84.85 53.741C84.576 53.4399 84.2018 53.251 83.7987 53.2104C82.9629 53.1096 80.5975 53.1626 80.5975 53.1626C80.5827 53.4153 80.5827 53.6687 80.5975 53.9214V60.9946V61.9709H75.3411V36.7984C75.5236 36.7661 75.7079 36.7449 75.893 36.7347C79.5094 36.7347 83.1206 36.7347 86.7371 36.7824C88.5399 36.8061 90.3038 37.3154 91.8464 38.2576C93.991 39.5523 95.0003 41.5527 95.1895 44.0095C95.2627 45.1176 95.1795 46.2307 94.9424 47.3152C94.4168 49.6552 92.9029 51.1781 90.7951 52.0908L89.9015 52.4994L97.208 61.9868M80.5975 48.6258H85.5229C85.9502 48.642 86.3781 48.6153 86.8002 48.5463C88.9028 48.1218 89.9541 46.843 89.8752 44.8797C89.7911 42.996 88.6084 41.7543 86.5058 41.5952C84.7186 41.4572 82.9209 41.5262 81.1232 41.489C80.7289 41.489 80.5975 41.6429 80.5975 42.0196V44.9752V48.6152V48.6258Z" fill="white"/>
<path d="M124.416 62.008C122.655 62.008 120.994 62.008 119.327 62.008C119.143 62.008 118.886 61.7056 118.802 61.4774C118.323 60.3047 117.882 59.1215 117.461 57.9382C117.422 57.7408 117.31 57.5656 117.148 57.4476C116.987 57.3296 116.787 57.2774 116.589 57.3014C113.249 57.3227 109.911 57.3227 106.575 57.3014C106.365 57.2733 106.152 57.3274 105.98 57.4527C105.808 57.578 105.69 57.765 105.65 57.9753C105.224 59.1851 104.73 60.379 104.231 61.5623C104.152 61.748 103.915 61.9974 103.747 62.0027C102.081 62.0399 100.42 62.0027 98.6378 62.0027C99.2107 60.5382 99.7258 59.1798 100.267 57.8268C102.99 51.0065 105.711 44.1881 108.431 37.3714C108.475 37.1646 108.595 36.9822 108.766 36.8603C108.937 36.7385 109.148 36.686 109.356 36.7135H113.834C114.005 36.6838 114.181 36.718 114.329 36.8098C114.477 36.9016 114.587 37.0447 114.638 37.2122C117.845 45.3059 121.058 53.3961 124.279 61.4827C124.316 61.5995 124.342 61.7268 124.416 61.9815M111.537 42.2107C110.223 45.7181 108.909 49.1883 107.595 52.7434H115.511C114.171 49.1989 112.883 45.7181 111.537 42.2107Z" fill="white"/>
<path d="M29.452 62.0239H24.1956V36.8143H28.9737C29.1419 36.8143 29.3364 37.0637 29.4573 37.2388C32.7373 41.9294 36.0104 46.6254 39.2764 51.3267C39.6706 51.8891 40.0701 52.441 40.559 53.1308V36.8514H45.7681V62.0664C44.1912 62.0664 42.6142 62.0664 41.0373 62.0664C40.8586 62.0664 40.6431 61.7799 40.5116 61.5835C37.0073 56.5497 33.503 51.5142 29.9987 46.4768C29.8778 46.3017 29.7306 46.1426 29.4731 45.8507V62.0239H29.452Z" fill="white"/>
<path d="M11.8849 36.8461H17.0835V62.0027H11.8849V36.8461Z" fill="white"/>
<path d="M69.9317 48.2067C69.9317 48.0316 69.8897 47.7132 69.5638 47.7132C69.4271 47.7132 69.2957 47.7132 69.1643 47.7132H68.5072C67.335 47.7132 66.1523 47.7132 64.9223 47.7132H60.6751V52.5949H64.9118C64.9118 53.863 64.9118 55.1259 64.9433 56.3092C64.9433 57.6676 64.4177 57.6729 63.5977 57.8374C62.8227 57.9504 62.0363 57.9611 61.2586 57.8692C59.1139 57.6888 57.1427 56.9884 55.6814 55.2533C54.3883 53.7304 54.0046 51.8785 53.8785 49.9471C53.6524 46.1956 55.6657 43.0491 59.1349 41.9401C62.4623 40.8788 65.653 41.367 68.728 42.9482C68.891 43.0384 69.0644 43.1021 69.3483 43.2348C69.3483 41.749 69.3483 40.3694 69.3483 38.9898C69.3884 38.7585 69.3403 38.5204 69.2135 38.3235C69.0867 38.1266 68.8907 37.9855 68.6649 37.9286C65.377 36.5753 61.7626 36.2481 58.2886 36.9894C55.6807 37.4916 53.3068 38.8407 51.5288 40.8311C48.5694 44.2536 48.007 48.3871 48.8533 52.7434C49.7889 57.7047 52.8955 60.7027 57.6053 62.0133C61.6423 63.1276 66.5413 62.6607 69.4376 61.106C69.5623 61.0466 69.6714 60.9585 69.7563 60.8488C69.8412 60.7392 69.8995 60.611 69.9265 60.4745C69.9528 56.6435 69.9528 52.0324 69.9265 48.2067" fill="white"/>
<path d="M5.20917 68.7469V27.9264L40.5695 8.78703V30.102H45.7734V0L0 24.7799V74H45.7734V68.7469H5.20917Z" fill="white"/>
</g>
<defs>
<clipPath id="clip0_3_320">
<rect width="149" height="74" fill="white"/>
</clipPath>
</defs>
</svg>
