<svg width="163" height="38" viewBox="0 0 163 38" fill="none" xmlns="http://www.w3.org/2000/svg">
<g clip-path="url(#clip0_3_449)">
<path d="M6.78116 7.20427C6.78116 4.00801 9.02451 1.87717 12.9504 1.87717C15.2447 1.87717 17.3351 2.33378 19.4765 3.34846C21.0061 4.05874 21.9238 3.04406 22.4336 1.82644C19.4765 0.608812 16.4174 0 13.2563 0C6.78116 0 0.0510969 2.13084 0.000111591 9.69025C-0.0508737 19.9386 17.3861 21.2069 17.794 29.7303C17.9979 33.7891 15.0918 36.0721 11.0639 36.0721C8.25973 36.0721 5.76145 35.4633 3.26317 34.1442C1.83558 33.4339 0.866862 34.2457 0.357009 35.4633C3.11021 37.0868 7.74988 37.9493 10.86 37.9493C18.5588 37.9493 24.9829 34.8545 24.779 27.1936C24.4731 16.5901 6.78116 15.3725 6.78116 7.20427ZM126.801 38C130.319 38 134.346 36.7824 136.386 34.9052C137.151 34.1949 136.743 33.2817 136.386 32.9773C134.193 34.7023 131.899 35.5648 128.942 35.5648C126.138 35.5648 124.098 34.6008 122.926 32.6729C121.702 30.745 121.09 27.7009 120.988 23.4393H137.355C137.405 23.4393 137.456 23.3885 137.507 23.3378C137.66 22.6782 137.711 21.9172 137.711 21.1055C137.711 19.5834 137.456 18.1629 136.998 16.9453C136.539 15.6769 135.927 14.5607 135.06 13.5968C134.193 12.6328 133.072 11.8718 131.644 11.3138C130.217 10.7557 128.585 10.502 126.699 10.502C122.773 10.502 119.714 11.7704 117.47 14.3578C115.227 16.9453 114.156 20.3445 114.207 24.6061C114.258 28.0053 115.074 31.4045 117.266 34.0935C119.51 36.9346 123.232 38 126.801 38ZM126.75 11.9226C131.389 11.9226 131.542 17.8077 131.542 21.3591L120.937 22.1709C121.039 18.3658 121.753 11.9226 126.75 11.9226ZM152.344 22.1709L161.573 11.0093H158.411C158.106 11.0093 157.851 11.0601 157.647 11.3645L151.477 20.9025L149.897 18.6195C145.359 12.0748 145.767 11.0093 143.167 11.0093H137.864L147.654 25.1642L137.507 37.4419H140.72C141.076 37.4419 141.382 37.3405 141.535 37.036L148.571 26.4326L151.019 29.8825C155.403 36.0721 154.791 37.4927 158.106 37.4419H163.102C163 37.4419 152.344 22.1709 152.344 22.1709ZM67.1987 34.3979V18.9239C67.1987 13.5968 65.1593 10.4513 60.0608 10.4513C55.727 10.4513 52.8209 12.6836 50.4756 15.1696C49.6088 12.1762 47.6204 10.4513 43.6945 10.4513C40.0236 10.4513 37.0154 12.1762 34.6191 14.8144V14.7637C34.6191 12.7343 34.2622 11.0093 32.2738 11.0093H28.093L28.3479 14.0534V34.3979L28.093 37.4419H34.925L34.6701 34.3979V16.235C36.5566 14.6115 38.8509 13.9519 40.6864 13.9519C44.2554 13.9519 44.6632 17.6555 44.6632 20.4967V34.3979L44.4083 37.4419H51.1894L50.9344 34.3979V16.235C52.566 14.8144 54.8603 13.9519 57.0017 13.9519C60.7236 13.9519 60.9785 18.0107 60.9785 20.4967V33.8905C60.9785 36.4272 61.6923 37.4927 63.3239 37.4927H67.5046L67.1987 34.3979ZM103.704 33.8905C103.704 36.1228 104.214 37.4419 106.05 37.4419H110.23L109.975 34.4486V18.9239C109.975 13.6475 107.987 10.4513 102.837 10.4513C99.2175 10.4513 95.7505 12.1762 93.3032 14.7637C93.3032 12.7343 92.9463 11.0093 90.9579 11.0093H86.7771L87.032 14.0534V34.3979L86.7771 37.4419H93.5581L93.3032 34.3979V16.235C95.2407 14.7637 97.0761 13.9519 99.6764 13.9519C102.99 13.9519 103.653 17.0467 103.653 20.4967L103.704 33.8905Z" fill="white"/>
<path d="M76.7842 6.7984C78.6708 6.7984 80.2002 5.27653 80.2002 3.3992C80.2002 1.52187 78.6708 0 76.7842 0C74.8976 0 73.3682 1.52187 73.3682 3.3992C73.3682 5.27653 74.8976 6.7984 76.7842 6.7984Z" fill="white"/>
<path d="M73.623 37.4419H80.4041L80.1492 34.3978V14.6115C80.1492 12.5821 79.7923 11.0601 77.8038 11.0601H73.623L73.878 14.0534V34.3978L73.623 37.4419Z" fill="white"/>
</g>
<defs>
<clipPath id="clip0_3_449">
<rect width="163" height="38" fill="white"/>
</clipPath>
</defs>
</svg>
