<svg width="189" height="48" viewBox="0 0 189 48" fill="none" xmlns="http://www.w3.org/2000/svg">
<g clip-path="url(#clip0_3_304)">
<path d="M29.5041 47.9935V27.4649C40.0589 27.9212 47.1066 36.0571 47.1066 48H48.8335C48.8335 35.2552 41.0457 25.7308 28.5573 25.7308C28.2706 25.7308 28.0572 25.7308 27.7705 25.7308V47.9935H29.5041Z" fill="white"/>
<path d="M107.395 37.7129C107.224 39.5291 106.517 41.2576 105.36 42.6881C104.203 44.1186 102.645 45.1893 100.877 45.77C99.1085 46.3506 97.2057 46.4161 95.4 45.9586C93.5942 45.501 91.9635 44.5401 90.7062 43.1928C89.4489 41.8454 88.6193 40.1698 88.3184 38.3699C88.0175 36.5699 88.2582 34.7232 89.0113 33.0546C89.7644 31.386 90.9974 29.9674 92.5601 28.9716C94.1229 27.9757 95.948 27.4454 97.8134 27.4454H105.528V25.7308H97.8134C95.5637 25.7308 93.3644 26.3831 91.4938 27.6052C89.6232 28.8272 88.1653 30.5642 87.3043 32.5964C86.4434 34.6286 86.2181 36.8647 86.657 39.0221C87.096 41.1795 88.1793 43.1611 89.7701 44.7165C91.3609 46.2719 93.3878 47.3311 95.5943 47.7602C97.8008 48.1894 100.088 47.9691 102.166 47.1274C104.245 46.2856 106.021 44.8601 107.271 43.0312C108.521 41.2023 109.188 39.052 109.188 36.8524C109.188 36.5655 109.188 36.2852 109.188 36.0049H97.6934V37.7129H107.395Z" fill="white"/>
<path d="M77.3451 35.9918C77.1695 34.1787 76.4594 32.4544 75.301 31.0282C74.1425 29.602 72.5856 28.5352 70.8191 27.9574C69.0526 27.3796 67.1525 27.3156 65.3495 27.7731C63.5465 28.2306 61.9182 29.19 60.662 30.5349C59.4059 31.8797 58.5761 33.5521 58.2732 35.3491C57.9704 37.1461 58.2076 38.9904 58.956 40.6582C59.7045 42.3259 60.932 43.7454 62.4895 44.7443C64.0471 45.7432 65.8677 46.2786 67.7304 46.2854H75.4448V47.9999H67.7304C65.4807 47.9999 63.2814 47.3477 61.4108 46.1256C59.5402 44.9036 58.0823 43.1666 57.2213 41.1344C56.3604 39.1022 56.1351 36.8661 56.574 34.7087C57.0129 32.5513 58.0963 30.5696 59.6871 29.0143C61.2779 27.4589 63.3048 26.3997 65.5113 25.9705C67.7178 25.5414 70.0049 25.7617 72.0834 26.6034C74.1619 27.4452 75.9384 28.8707 77.1883 30.6996C78.4382 32.5285 79.1053 34.6788 79.1053 36.8784C79.1053 37.1652 79.1053 37.4456 79.1053 37.7259H59.2692V35.9918H77.3451Z" fill="white"/>
<path d="M120.891 25.7308H119.157V47.9935H120.891V25.7308Z" fill="white"/>
<path d="M162.376 25.7308H160.643V47.9935H162.376V25.7308Z" fill="white"/>
<path d="M147.033 47.987V42.0285C147.033 40.8851 146.569 39.7884 145.743 38.9792C144.917 38.1701 143.796 37.7146 142.626 37.7129H135.352V36.0049H142.64C143.227 36.0274 143.813 35.9336 144.362 35.7293C144.912 35.525 145.414 35.2143 145.837 34.8159C146.261 34.4175 146.598 33.9395 146.828 33.4107C147.059 32.8818 147.177 32.313 147.177 31.7382C147.177 31.1634 147.059 30.5945 146.828 30.0657C146.598 29.5368 146.261 29.0588 145.837 28.6604C145.414 28.262 144.912 27.9513 144.362 27.747C143.813 27.5427 143.227 27.449 142.64 27.4714H138.639C138.064 27.4654 137.493 27.5708 136.96 27.7817C136.427 27.9925 135.942 28.3045 135.532 28.6997C135.123 29.0949 134.798 29.5655 134.576 30.0842C134.354 30.6029 134.239 31.1595 134.238 31.7219L134.272 48.0196H132.538V31.7219C132.537 30.9354 132.695 30.1565 133.002 29.4297C133.309 28.7029 133.76 28.0424 134.328 27.486C134.897 26.9296 135.572 26.4882 136.315 26.187C137.058 25.8858 137.855 25.7308 138.659 25.7308H142.66C143.464 25.73 144.262 25.8844 145.005 26.1851C145.749 26.4859 146.425 26.9272 146.994 27.4837C147.563 28.0401 148.015 28.7009 148.322 29.4282C148.63 30.1554 148.788 30.9349 148.787 31.7219C148.808 32.7663 148.537 33.7966 148.004 34.7018C147.47 35.607 146.695 36.3528 145.76 36.8589C146.682 37.3872 147.447 38.1423 147.978 39.0493C148.509 39.9563 148.788 40.9834 148.787 42.0285V47.9935L147.033 47.987Z" fill="white"/>
<path d="M10.8687 47.9935C12.4973 47.9935 14.0593 47.3609 15.2109 46.235C16.3625 45.109 17.0095 43.5818 17.0095 41.9894C17.0095 40.3971 16.3625 38.8699 15.2109 37.7439C14.0593 36.6179 12.4973 35.9854 10.8687 35.9854H6.12799C5.54144 36.0078 4.9563 35.9142 4.40763 35.7102C3.85896 35.5063 3.35807 35.1961 2.93496 34.7982C2.51186 34.4004 2.17526 33.9232 1.94533 33.3951C1.71541 32.8671 1.59689 32.2991 1.59689 31.7251C1.59689 31.1512 1.71541 30.5832 1.94533 30.0552C2.17526 29.5271 2.51186 29.0499 2.93496 28.652C3.35807 28.2542 3.85896 27.944 4.40763 27.7401C4.9563 27.5361 5.54144 27.4425 6.12799 27.4649H16.2628V25.7243H6.14799C5.32675 25.6978 4.50844 25.8331 3.74175 26.1221C2.97506 26.4111 2.27565 26.8479 1.68512 27.4065C1.0946 27.9651 0.625018 28.6342 0.304321 29.3739C-0.0163764 30.1135 -0.181641 30.9087 -0.181641 31.7121C-0.181641 32.5155 -0.0163764 33.3107 0.304321 34.0503C0.625018 34.79 1.0946 35.4591 1.68512 36.0177C2.27565 36.5763 2.97506 37.0131 3.74175 37.3021C4.50844 37.5911 5.32675 37.7264 6.14799 37.6999H10.8687C12.0358 37.6999 13.1551 38.1532 13.9804 38.9601C14.8056 39.767 15.2693 40.8614 15.2693 42.0025C15.2693 43.1436 14.8056 44.238 13.9804 45.0449C13.1551 45.8518 12.0358 46.3051 10.8687 46.3051H0.140477V47.9935H10.8687Z" fill="#63717A"/>
<path d="M164.689 2.87487C164.689 2.87487 164.883 2.39245 166.416 2.13169L166.45 2.04042C166.45 2.04042 167.59 0.14989 171.117 0.0129897C174.491 -0.117392 175.358 0.958257 175.624 1.21902C175.891 1.47978 176.624 2.96613 175.624 3.23342C174.417 3.55937 172.03 2.76404 172.03 2.76404C172.03 2.76404 167.81 1.64928 166.23 3.35076L164.689 2.87487Z" fill="white"/>
<path d="M159.016 2.36642C159.016 2.36642 159.15 2.02743 160.243 1.8449V1.77971C160.243 1.77971 161.05 0.47589 163.544 0.345508C166.037 0.215126 166.498 1.03001 166.498 1.03001C166.188 1.39725 165.764 1.65584 165.291 1.76667C164.885 1.83025 164.509 2.01202 164.211 2.28819C164.211 2.28819 161.217 1.49939 160.09 2.70542L159.016 2.36642Z" fill="white"/>
<path d="M171.304 0.554121C172.98 0.446488 174.639 0.937623 175.972 1.93617C176.084 2.12929 176.128 2.353 176.098 2.57313C176.068 2.79326 175.965 2.99771 175.805 3.15523C175.475 3.27458 175.123 3.32779 174.771 3.31169C173.755 3.22279 172.753 3.01935 171.784 2.70542C171.518 2.65327 171.211 2.57504 170.958 2.54244C170.077 2.39421 169.179 2.36569 168.29 2.45769C167.937 2.50333 169.431 0.717098 171.304 0.554121Z" fill="white"/>
<path d="M178.639 6.46042C178.545 6.46042 178.539 6.37567 178.525 6.29093C178.326 6.06242 178.115 5.84478 177.892 5.63902C177.829 5.60461 177.765 5.57413 177.698 5.54775C177.534 5.42133 177.352 5.31818 177.158 5.24135C176.938 5.16312 176.618 5.06534 176.432 4.97407C176.365 4.97407 176.338 4.97407 176.285 4.97407C176.232 4.97407 176.245 4.9154 176.198 4.9154C176.152 4.9154 175.905 4.9154 175.831 4.85021C175.959 4.82868 176.09 4.82868 176.218 4.85021C176.218 4.75894 176.092 4.76546 176.025 4.71983C175.958 4.67419 175.771 4.53729 175.631 4.45254C175.394 4.30894 175.144 4.18675 174.885 4.08748C174.777 4.04341 174.661 4.02123 174.545 4.02228C174.251 3.82671 173.738 3.91146 173.491 3.81367C173.438 3.81367 173.491 3.87235 173.411 3.81367C173.331 3.755 173.238 3.81367 173.084 3.81367C172.724 3.90494 172.158 3.89842 171.964 3.98969C171.807 4.06356 171.645 4.12462 171.478 4.17222C171.251 4.23241 171.028 4.30644 170.811 4.39387C170.491 4.51773 170.144 4.70679 169.791 4.86325C169.92 4.76413 170.061 4.68093 170.211 4.61552C170.088 4.62416 169.968 4.65512 169.857 4.70679C169.544 4.83717 169.311 5.00015 168.997 5.12401C168.892 5.1441 168.789 5.17468 168.69 5.21528C168.47 5.33914 168.23 5.44996 168.024 5.58035C167.817 5.71073 167.677 5.84763 167.524 5.95845L167.21 6.19966C167.042 6.32243 166.882 6.45523 166.73 6.59732C166.657 6.65599 166.617 6.72118 166.544 6.77334C166.47 6.82549 166.59 6.77334 166.544 6.77334C166.202 7.1683 165.917 7.60695 165.697 8.07715C165.273 9.18072 165.21 10.3857 165.517 11.5257C165.217 9.65477 165.67 8.00544 166.77 7.02758C166.776 7.01536 166.779 7.002 166.779 6.98847C166.779 6.97494 166.776 6.96158 166.77 6.94935C166.91 6.94935 166.984 6.72118 167.157 6.68207C167.165 6.63603 167.189 6.59429 167.226 6.5644C167.263 6.53451 167.309 6.51844 167.357 6.51909V6.4539C167.724 6.14099 168.15 5.8737 168.51 5.54775C168.677 5.50212 168.764 5.37173 168.917 5.31306C168.237 5.84012 167.595 6.41302 166.997 7.02758C166.997 7.11885 166.997 7.2036 167.03 7.3079C166.804 7.3079 166.864 7.65341 166.657 7.71209C166.657 7.65341 166.704 7.60126 166.657 7.54911C166.269 8.04751 165.988 8.61742 165.831 9.2246C165.674 9.83178 165.644 10.4637 165.743 11.0825C165.829 11.4875 165.894 11.8965 165.937 12.308C165.937 12.3602 166.01 12.3797 166.017 12.4384C166.117 12.8426 166.33 13.136 166.424 13.4815C166.53 13.5206 166.544 13.651 166.584 13.7553C167.01 14.5481 167.554 15.2751 168.197 15.9131C168.13 15.874 168.104 15.724 168.11 15.6588C168.299 15.8159 168.469 15.993 168.617 16.1869C168.55 16.1347 168.464 16.0891 168.404 16.1087C168.344 16.1282 168.484 16.1608 168.484 16.213C168.484 16.2651 168.45 16.213 168.424 16.213C168.484 16.3564 168.617 16.4216 168.731 16.5128C168.844 16.6041 169.024 16.8323 169.184 16.9431C169.597 17.243 169.997 17.5168 170.417 17.7841C171.037 18.1687 171.678 18.4751 172.318 18.8206L172.691 18.9053C173.104 19.0683 173.525 19.2313 173.958 19.3682C174.771 19.6673 175.613 19.8857 176.472 20.0201V20.0723C176.525 20.0071 176.552 20.1114 176.605 20.0723C176.522 20.0309 176.435 19.9981 176.345 19.9745L176.025 19.8637C175.798 19.7985 175.571 19.7593 175.358 19.6876C175.086 19.5901 174.821 19.4747 174.565 19.3421C174.147 19.1865 173.739 19.0058 173.344 18.801H173.244C173.184 18.7684 173.131 18.6837 173.051 18.6381C172.971 18.5924 172.844 18.6055 172.838 18.5272C172.924 18.5664 173.178 18.6381 172.971 18.5272C172.623 18.3752 172.286 18.1987 171.964 17.9992C171.394 17.5937 170.846 17.1585 170.324 16.6954C170.491 16.7736 170.691 17.0083 170.824 16.9496C170.824 16.9496 170.757 16.917 170.824 16.917C170.751 16.917 170.504 16.6106 170.391 16.5063C170.171 16.3287 169.964 16.1371 169.771 15.9326C169.557 15.6654 169.297 15.3525 169.104 15.1243C169.014 14.9439 168.904 14.7734 168.777 14.6158C168.724 14.4433 168.643 14.2804 168.537 14.1334C168.177 13.4213 167.968 12.645 167.924 11.8517C167.867 10.9826 168.086 10.1174 168.55 9.37445H168.617C168.808 9.09517 169.031 8.83912 169.284 8.61172C169.317 8.61172 169.284 8.61172 169.357 8.61172C169.734 8.30433 170.146 8.0397 170.584 7.82291C172.339 6.8336 174.34 6.33941 176.365 6.39523C176.495 6.41007 176.624 6.43183 176.752 6.46042C176.905 6.46042 177.092 6.46042 177.145 6.55821C177.198 6.65599 177.005 6.55821 176.965 6.55821C177.451 6.74754 177.969 6.84488 178.492 6.84505C178.492 6.7603 178.592 6.7603 178.605 6.68859C178.619 6.61688 178.552 6.51909 178.639 6.46042ZM170.937 17.3734C170.857 17.3344 170.79 17.2732 170.744 17.1973C170.821 17.2419 170.887 17.3019 170.937 17.3734ZM170.331 17.1061C170.249 17.0656 170.18 17.0049 170.131 16.9301C170.212 16.9706 170.281 17.0313 170.331 17.1061ZM166.83 9.70041C166.784 9.66781 166.83 9.70041 166.777 9.7656C166.857 9.72648 166.73 9.91554 166.777 9.94161H166.69C166.708 9.92946 166.722 9.91255 166.73 9.8929C166.738 9.87325 166.741 9.85169 166.737 9.83079C166.697 9.92205 166.737 9.83079 166.69 9.7656C166.644 9.70041 166.69 9.7656 166.724 9.7656C166.766 9.37048 166.898 8.98961 167.11 8.65083C167.07 8.75514 167.07 8.89856 166.984 8.95071C167.017 9.21147 166.804 9.44616 166.83 9.70041ZM167.117 11.6561C167.164 11.6561 167.164 11.793 167.177 11.8908C167.185 12.0052 167.212 12.1176 167.257 12.2233C167.257 12.5558 167.417 12.9274 167.437 13.149C167.247 12.6674 167.139 12.1588 167.117 11.6431V11.6561ZM168.05 13.4163C167.863 12.9383 167.753 12.4346 167.724 11.9234C167.77 11.9234 167.77 12.0668 167.79 12.1646C167.793 12.2797 167.82 12.3931 167.87 12.4971C167.89 12.81 168.024 13.1881 168.024 13.4032L168.05 13.4163ZM168.944 8.85292C168.944 8.80077 169.044 8.76818 169.024 8.7421C169.004 8.71602 169.077 8.7421 169.104 8.7095C169.089 8.7423 169.067 8.77152 169.039 8.79516C169.012 8.8188 168.979 8.83628 168.944 8.84641V8.85292ZM169.057 5.28047C169.057 5.2218 169.124 5.23483 169.137 5.20224C169.151 5.16964 169.091 5.26091 169.057 5.27395V5.28047ZM169.671 4.86325C169.671 4.94148 169.591 4.94148 169.524 4.96103C169.568 4.9203 169.617 4.88525 169.671 4.85673V4.86325ZM177.358 5.86718C176.591 5.67371 175.796 5.60326 175.005 5.65857C174.691 5.7694 174.225 5.65857 173.871 5.83459C173.838 5.78896 173.818 5.83459 173.745 5.83459C173.671 5.83459 173.651 5.83459 173.658 5.89978C173.665 5.96497 173.658 5.86718 173.658 5.85415C173.227 5.95024 172.803 6.0766 172.391 6.23225H172.311C172.058 6.34308 171.831 6.41479 171.564 6.53213C171.531 6.53213 171.564 6.5908 171.531 6.59732C171.478 6.59419 171.424 6.59419 171.371 6.59732C171.324 6.59732 171.324 6.63644 171.258 6.66251C171.15 6.69471 171.045 6.73616 170.944 6.78638C170.884 6.82549 170.944 6.78638 170.844 6.83201C170.744 6.87764 170.731 6.96891 170.571 6.96239C170.179 7.21341 169.774 7.44407 169.357 7.65341C169.591 7.41221 169.991 7.22315 170.251 7.00151C170.374 6.91817 170.503 6.84408 170.637 6.77986C170.697 6.74726 170.751 6.67555 170.817 6.63644C170.884 6.59732 171.024 6.5908 171.044 6.49302C171.194 6.43477 171.337 6.36044 171.471 6.27137C171.731 6.14099 172.038 6.04972 172.278 5.89978C172.278 5.89978 172.311 5.85415 172.331 5.84111C172.351 5.82807 172.331 5.8737 172.331 5.8737C172.331 5.8737 172.518 5.7694 172.624 5.73028C173.324 5.4657 174.054 5.28404 174.798 5.1892C174.838 5.1892 174.798 5.1566 174.851 5.1566C175.065 5.1566 175.411 5.1566 175.518 5.1566C176.113 5.20229 176.686 5.40013 177.178 5.73028C177.258 5.73028 177.272 5.76288 177.325 5.77592L177.358 5.86718Z" fill="white"/>
<path d="M188.634 23.4036C188.29 23.0422 187.98 22.6517 187.707 22.2367C187.62 22.191 187.654 22.2367 187.607 22.2367C187.56 22.2367 187.607 22.1715 187.607 22.1389C187.607 22.1063 187.554 22.1389 187.54 22.1389C186.63 20.9676 185.821 19.7248 185.12 18.423C185.08 18.423 185.08 18.423 185.053 18.423C185.027 18.423 185.053 18.3643 185.053 18.3252C185.053 18.2861 184.993 18.3252 184.973 18.247C184.687 17.5625 184.22 16.9758 183.993 16.2913C184.713 16.4151 185.473 16.6237 186.187 16.7215C186.246 16.7344 186.308 16.7344 186.367 16.7215C185.62 16.4999 184.633 16.2521 183.82 16.0044C183.52 15.3525 183.186 14.7462 182.86 14.1595C182.753 13.977 182.653 13.7944 182.533 13.625C182.296 13.1928 182.027 12.7787 181.726 12.3863C181.584 12.2105 181.455 12.0254 181.339 11.8322C180.472 10.5091 179.309 9.39479 177.939 8.57266C177.839 8.37057 177.552 8.36405 177.359 8.25323C177.326 8.25323 177.359 8.2076 177.306 8.18804C177.252 8.16848 177.232 8.18804 177.199 8.18804C177.166 8.18804 177.052 8.08373 176.986 8.05766C176.527 7.86343 176.037 7.7466 175.539 7.71215C175.785 7.75126 176.012 7.80341 176.252 7.84905C177.024 8.12515 177.751 8.50708 178.412 8.98337C177.425 8.26104 176.248 7.82706 175.019 7.7317C175.09 7.734 175.16 7.72063 175.225 7.69259C174.883 7.65774 174.538 7.71172 174.224 7.84907C173.911 7.98643 173.639 8.2023 173.438 8.47488C173.438 8.47488 173.405 8.47488 173.358 8.47488C173.292 8.65741 173.205 8.82039 173.132 8.9964C173.112 9.77458 173.399 10.5304 173.932 11.1086C173.932 11.1086 173.932 11.1086 173.978 11.063C174.025 11.0173 174.032 11.1738 174.058 11.1412C174.085 11.1086 174.025 11.0825 174.025 11.0825C174.105 11.1607 174.132 11.2064 174.205 11.1607C174.678 11.7316 175.205 12.2576 175.779 12.7318C175.849 12.8074 175.939 12.8636 176.039 12.8948C175.992 12.973 176.205 12.9926 176.165 13.0643C175.491 12.593 174.872 12.0509 174.318 11.4476C174.352 11.4476 174.318 11.5323 174.318 11.5584C174.318 11.5845 174.579 11.8844 174.705 12.0213C174.832 12.1582 175.125 12.3798 175.305 12.5754C175.538 12.7882 175.796 12.9741 176.072 13.1295C176.345 13.312 176.605 13.5337 176.852 13.6706C177.028 13.7334 177.192 13.8237 177.339 13.9379C177.086 13.8401 176.825 13.6771 176.592 13.6054C176.359 13.5337 176.332 13.3968 176.185 13.3968C176.278 13.4299 176.361 13.4861 176.425 13.5598C176.365 13.5598 176.352 13.4555 176.279 13.5141C176.205 13.5728 176.219 13.5141 176.279 13.5728C175.735 13.2732 175.229 12.9122 174.772 12.4972C174.498 12.2951 174.332 11.9756 174.052 11.7801C173.634 11.292 173.29 10.7474 173.032 10.1633C172.998 10.2937 173.032 10.1633 173.065 10.2872C173.098 10.411 173.065 10.2872 173.032 10.2872C173.204 10.9074 173.534 11.4748 173.992 11.9365C173.992 12.1516 174.218 12.269 174.398 12.445C175.214 13.2335 176.15 13.8932 177.172 14.4007C177.392 14.5181 177.692 14.5898 177.839 14.7528H177.952C178.379 14.9679 178.879 15.1048 179.286 15.3069C179.339 15.3041 179.392 15.3147 179.44 15.3375C179.488 15.3603 179.529 15.3946 179.559 15.4373C180.599 15.7371 181.66 15.9718 182.826 16.2261C183.484 18.6091 184.479 20.8909 185.78 23.0059C185.847 23.0059 185.933 23.0385 185.973 23.0907C185.973 23.0385 186.073 23.0907 186.087 23.0059C186.153 23.0776 186.24 23.1298 186.267 23.2276C186.7 23.5082 187.188 23.699 187.7 23.7882C187.747 23.7882 187.7 23.7295 187.78 23.7556C187.86 23.7817 187.847 23.8338 187.914 23.8469C188.274 23.7947 188.58 24.1272 188.994 24.075C188.981 23.7817 188.694 23.6383 188.634 23.4036ZM176.285 13.5337C176.285 13.5337 176.285 13.5337 176.319 13.5337C176.352 13.5337 176.379 13.5793 176.399 13.6119C176.419 13.6445 176.312 13.5467 176.285 13.5337ZM176.232 13.1165C176.232 13.1165 176.265 13.1165 176.265 13.0708C176.265 13.0708 176.339 13.1621 176.365 13.123C176.392 13.0839 176.325 13.1621 176.365 13.1686C176.405 13.1751 176.292 13.1425 176.232 13.1165ZM180.446 14.6289C180.26 14.6169 180.08 14.5561 179.926 14.4529C180.209 14.4718 180.485 14.552 180.733 14.6876C180.693 14.7658 180.539 14.6028 180.446 14.6289ZM181.92 15.2156C181.92 15.1765 181.92 15.2156 181.92 15.1635C181.782 15.1371 181.646 15.1023 181.513 15.0592C181.513 15.02 181.553 15.02 181.593 15.0266C181.633 15.0331 181.493 14.9679 181.593 14.9614C181.526 14.9614 181.453 14.8962 181.346 14.8962C181.581 14.7791 181.843 14.7251 182.106 14.7397C181.479 14.4203 180.613 14.316 179.933 14.0226C179.599 13.8792 179.266 13.7684 178.939 13.6445C178.612 13.5206 178.272 13.3186 177.932 13.1686C177.597 13.0201 177.272 12.8503 176.959 12.6601H176.866C176.812 12.6015 176.772 12.5428 176.652 12.5623C176.425 12.2559 175.872 12.1777 175.725 11.8452C175.028 11.3871 174.404 10.8314 173.872 10.1959C173.689 9.94387 173.581 9.64772 173.559 9.33968C173.536 9.03163 173.601 8.7235 173.745 8.4488C173.963 8.22734 174.236 8.06431 174.537 7.97528C174.839 7.88626 175.158 7.87422 175.465 7.94031C175.312 7.94031 175.125 7.94031 174.899 7.97291C175.085 7.97291 175.412 7.97291 175.625 7.97291C175.572 8.01854 175.352 7.97291 175.219 7.97291C176.031 7.99093 176.82 8.23766 177.492 8.68349C178.226 9.06486 178.9 9.54792 179.493 10.1177C179.512 10.1574 179.528 10.1989 179.539 10.2415C179.599 10.2741 179.639 10.2415 179.699 10.3067C179.759 10.3719 179.619 10.2285 179.619 10.3067C178.911 9.63648 178.107 9.06997 177.232 8.62482C177.577 8.80452 177.9 9.02333 178.192 9.27672C178.192 9.27672 178.192 9.27673 178.192 9.24413C178.192 9.21153 178.272 9.28324 178.226 9.27672C178.9 9.72535 179.489 10.2857 179.966 10.9326C180.013 10.9326 179.999 10.9912 180.059 10.9782C180.286 11.3759 180.626 11.6301 180.826 12.0734C180.646 11.917 180.519 11.5584 180.273 11.4215C180.273 11.4606 180.273 11.4802 180.353 11.4997C180.802 12.141 181.21 12.8095 181.573 13.5011C181.775 13.7773 181.945 14.0746 182.08 14.3877C182.226 14.6818 182.333 14.9928 182.4 15.3134C182.242 15.2691 182.082 15.2364 181.92 15.2156Z" fill="white"/>
<path d="M180.346 13.7553C180.079 13.6658 179.818 13.5591 179.565 13.4358C179.492 13.4358 179.425 13.4032 179.439 13.3706C179.377 13.3766 179.316 13.3604 179.265 13.325C179.265 13.2272 179.125 13.325 179.085 13.2468C179.045 13.1685 179.139 13.2924 179.152 13.2468C179.005 13.2142 179.072 13.2468 178.925 13.1816C178.965 13.1816 178.992 13.2272 179.005 13.1816C178.919 13.1816 178.899 13.1816 178.879 13.136C178.859 13.0903 178.879 13.136 178.812 13.136C178.592 12.999 178.145 12.8556 177.818 12.6601C177.705 12.5949 177.625 12.5036 177.512 12.5036C177.192 12.3301 176.882 12.1385 176.585 11.9299C175.964 11.5646 175.391 11.1267 174.878 10.6261C174.825 10.5674 174.805 10.4827 174.698 10.4827C174.545 10.235 174.278 10.0915 174.165 9.83078C174.13 9.80671 174.096 9.78058 174.065 9.75255C174.011 9.68084 173.978 9.4983 173.905 9.4983C173.831 9.4983 173.951 9.56349 173.905 9.56349C173.751 9.56349 173.685 9.84381 173.838 9.92204C174.247 10.4404 174.727 10.901 175.265 11.2911C175.404 11.4337 175.564 11.5565 175.738 11.6561C175.998 11.8452 176.218 11.9951 176.405 12.1646H176.505C177.3 12.7056 178.162 13.1439 179.072 13.4684C179.072 13.3772 178.892 13.4098 178.859 13.312C178.825 13.2142 178.899 13.312 178.925 13.312C178.952 13.312 179.025 13.3902 179.025 13.3576C179.072 13.4423 179.132 13.4228 179.239 13.4489L180.279 13.8009C180.279 13.8009 180.386 13.7487 180.346 13.7553ZM177.258 12.3863C177.258 12.3863 177.345 12.3863 177.358 12.4645C177.372 12.5427 177.258 12.4645 177.258 12.3863ZM177.405 12.4645L177.698 12.6209C177.587 12.6112 177.483 12.5626 177.405 12.484V12.4645ZM177.712 12.6535C177.885 12.7171 178.048 12.8026 178.199 12.9078C178.025 12.8491 177.865 12.7644 177.712 12.6731V12.6535ZM179.245 13.3054H179.212C179.212 13.3054 179.239 13.2989 179.245 13.312V13.3054Z" fill="white"/>
<path d="M165.357 4.21133C165.196 4.07898 165.007 3.98323 164.803 3.93101C164.717 3.93101 164.47 3.97012 164.416 3.93101C164.622 3.86518 164.831 3.8129 165.043 3.77455C164.729 3.65161 164.409 3.54498 164.083 3.45512C163.851 3.36948 163.601 3.34257 163.356 3.37689C163.13 3.46815 162.876 3.60505 162.636 3.71588C162.728 3.64458 162.829 3.5854 162.936 3.53986C162.851 3.54584 162.767 3.56797 162.69 3.60505C162.463 3.69632 162.303 3.80715 162.076 3.89189C161.997 3.93219 161.922 3.97794 161.849 4.02879C161.696 4.12006 161.523 4.19829 161.383 4.28304C161.26 4.36788 161.142 4.45928 161.029 4.55684C160.943 4.61551 160.876 4.67418 160.809 4.72634C160.688 4.80963 160.574 4.90345 160.469 5.00666C160.428 5.04914 160.383 5.08837 160.336 5.124C160.098 5.3943 159.898 5.6947 159.742 6.01711C159.443 6.79289 159.399 7.64066 159.616 8.44221C159.484 7.88513 159.495 7.30479 159.649 6.75307C159.803 6.20134 160.094 5.69541 160.496 5.28046C160.501 5.27154 160.504 5.26142 160.504 5.25112C160.504 5.24082 160.501 5.23071 160.496 5.22179C160.596 5.22179 160.649 5.06533 160.769 5.03273C160.779 5.00912 160.795 4.98806 160.815 4.97112C160.834 4.95419 160.857 4.94182 160.883 4.93495V4.88931C161.143 4.66766 161.443 4.47861 161.696 4.23741C161.816 4.23741 161.876 4.11354 161.983 4.06791C161.509 4.44041 161.064 4.84563 160.649 5.28046C160.649 5.34565 160.649 5.41084 160.649 5.47603C160.496 5.47603 160.536 5.72376 160.389 5.75635C160.389 5.75635 160.423 5.68464 160.389 5.64553C160.116 5.9898 159.917 6.38409 159.802 6.8051C159.687 7.22611 159.66 7.6653 159.722 8.0967C159.785 8.38064 159.829 8.66801 159.856 8.95722C159.856 8.99634 159.909 9.00937 159.916 9.04849C159.983 9.34185 160.136 9.54394 160.203 9.78514C160.276 9.78514 160.283 9.90901 160.316 9.98072C160.614 10.5393 160.996 11.0513 161.449 11.4997C161.403 11.4997 161.383 11.3628 161.389 11.3171C161.519 11.4302 161.637 11.5546 161.743 11.6887C161.723 11.6705 161.7 11.6565 161.675 11.6475C161.65 11.6385 161.623 11.6348 161.596 11.6366C161.596 11.6366 161.649 11.6757 161.656 11.7148H161.609C161.649 11.8126 161.749 11.8582 161.823 11.9234C161.896 11.9886 162.036 12.1451 162.143 12.2233C162.436 12.4384 162.716 12.634 163.016 12.823C163.45 13.0903 163.903 13.3054 164.35 13.5467C164.456 13.6084 164.571 13.6566 164.69 13.6901C164.483 13.4822 164.26 13.2904 164.023 13.1164C163.674 12.824 163.343 12.5128 163.03 12.1842C163.15 12.2428 163.29 12.3993 163.39 12.3602C163.443 12.3602 163.163 12.1451 163.083 12.0668C162.927 11.944 162.782 11.8088 162.65 11.6626C162.49 11.4801 162.31 11.2585 162.196 11.0955C162.134 10.9683 162.058 10.8481 161.969 10.7369C161.931 10.6155 161.872 10.5011 161.796 10.3979C161.542 9.89567 161.397 9.34747 161.369 8.78772C161.327 8.17688 161.481 7.56838 161.809 7.04713H161.856C161.989 6.85128 162.144 6.66989 162.316 6.50605H162.37C162.618 6.26425 162.893 6.05 163.19 5.86718C163.687 5.60975 164.204 5.39175 164.737 5.21527C165.168 5.0765 165.616 4.99537 166.07 4.97406C165.851 4.70337 165.613 4.44846 165.357 4.21133ZM160.689 6.65598C160.689 6.82548 160.549 6.98846 160.569 7.17099C160.569 7.17099 160.569 7.17099 160.569 7.21663C160.569 7.26226 160.529 7.32093 160.569 7.34049C160.581 7.33106 160.59 7.31901 160.596 7.30539C160.602 7.29176 160.604 7.27696 160.603 7.26226C160.603 7.32745 160.603 7.26226 160.569 7.21663C160.602 6.9398 160.696 6.67307 160.843 6.43434C160.736 6.51908 160.736 6.61687 160.689 6.65598ZM161.409 9.77863C161.275 9.44305 161.196 9.08878 161.176 8.72905C161.209 8.72905 161.209 8.82684 161.223 8.89855C161.227 8.97911 161.245 9.05839 161.276 9.13324C161.296 9.3614 161.389 9.62869 161.409 9.77863ZM162.036 6.57124C162.036 6.53212 162.109 6.50605 162.089 6.49301C162.069 6.47997 162.129 6.49301 162.149 6.49301C162.135 6.51418 162.117 6.53212 162.095 6.54562C162.073 6.55912 162.048 6.56786 162.023 6.57124H162.036ZM162.116 4.04835C162.116 4.00924 162.163 4.04835 162.17 3.9962C162.176 3.94405 162.136 4.04183 162.116 4.04835ZM162.55 3.76151C162.55 3.81366 162.49 3.81366 162.45 3.8267C162.479 3.79983 162.513 3.77782 162.55 3.76151ZM164.483 4.70026H164.423C164.25 4.77849 164.09 4.83064 163.896 4.91539C163.896 4.91539 163.896 4.91539 163.896 4.9545H163.783C163.75 4.9545 163.75 4.9545 163.703 5.00014C163.629 5.0221 163.558 5.05046 163.49 5.08489C163.443 5.08489 163.49 5.08489 163.416 5.08489C163.343 5.08489 163.336 5.18267 163.223 5.17615C162.946 5.35699 162.659 5.5224 162.363 5.6716C162.53 5.50211 162.81 5.36521 163.03 5.20223C163.117 5.14483 163.209 5.09258 163.303 5.04577C163.35 5.04577 163.383 4.97406 163.43 4.94799C163.476 4.92191 163.576 4.90887 163.596 4.84368C163.699 4.80053 163.797 4.74816 163.89 4.68722C164.076 4.58944 164.29 4.53076 164.463 4.42646C164.463 4.42646 164.463 4.38734 164.463 4.38082C164.463 4.38082 164.59 4.30911 164.67 4.27652C165.07 4.19829 164.723 4.56336 164.483 4.70026Z" fill="white"/>
</g>
<defs>
<clipPath id="clip0_3_304">
<rect width="189" height="48" fill="white"/>
</clipPath>
</defs>
</svg>
