<svg width="155" height="54" viewBox="0 0 155 54" fill="none" xmlns="http://www.w3.org/2000/svg">
<g clip-path="url(#clip0_3_329)">
<path d="M10.5863 0H0L2.08336 5.17962L12.6752 5.18499L10.5863 0Z" fill="white"/>
<path d="M61.4014 0V5.06166H46.3585V12.2091H58.4486V17.2279H46.3585V25.8874H61.9427V30.9491H40.3818V0H61.4014Z" fill="white"/>
<path d="M120.824 0V5.06166H105.781V12.2091H117.866V17.2279H105.781V25.8874H121.365V30.9491H99.7988V0H120.824Z" fill="white"/>
<path d="M155 30.9491H147.711L133.138 7.63539V30.9491H127.293V0H135.129L149.073 22.3324V0H155V30.9491Z" fill="white"/>
<path d="M30.6271 0L20.6094 24.5523L12.6751 5.18499L9.36145 13.0777L16.7325 30.9491H17.9956H23.2177H24.4809L37.249 0H30.6271Z" fill="white"/>
<path d="M93.8438 30.9491L88.1023 17.8177C90.2895 16.622 93.2314 14.0643 93.2314 9.0134C93.2314 4.04289 91.0988 0 84.4441 0H68.0068V30.9491H73.9835V19.1206H82.1857L87.0688 30.9491H93.8438ZM73.9835 4.97051H83.0388C85.2588 4.97051 86.7079 6.52547 86.7079 9.79625C86.7079 12.815 85.2151 14.3217 82.9075 14.3217H73.9835V4.97051Z" fill="white"/>
<path d="M22.6436 50.0804H20.686V48.681H24.3824V53.6193C23.3379 53.8736 22.2653 53.9996 21.189 53.9946C18.3401 53.9946 16.9786 52.9223 16.9786 49.3351C16.9786 45.748 18.5097 44.7989 21.4351 44.7989C22.3474 44.8077 23.2556 44.9192 24.1418 45.1314L23.7919 46.5791C23.0615 46.4048 22.3126 46.3166 21.5609 46.3164C19.5267 46.3164 18.794 46.6434 18.794 49.3458C18.794 52.0483 19.5267 52.4826 21.4843 52.4826C21.8743 52.4806 22.263 52.4375 22.6436 52.3539V50.0804Z" fill="white"/>
<path d="M84.7893 49.3298C84.7893 52.9705 83.373 53.9893 80.5296 53.9893C77.6862 53.9893 76.248 52.9705 76.248 49.3298C76.248 45.689 77.6807 44.7936 80.5296 44.7936C83.3785 44.7936 84.7893 45.7534 84.7893 49.3298ZM82.9903 49.3298C82.9903 46.6488 82.4981 46.2735 80.5296 46.2735C78.5611 46.2735 78.0689 46.6649 78.0689 49.3298C78.0689 51.9947 78.5556 52.4611 80.5296 52.4611C82.5036 52.4611 82.9903 51.9839 82.9903 49.3298Z" fill="white"/>
<path d="M114.356 51.1528C114.356 53.4691 112.928 53.9999 110.583 53.9999C108.237 53.9999 106.81 53.4638 106.81 51.1528V45.0402H108.521V50.9383C108.521 52.1125 109.068 52.504 110.583 52.504C112.097 52.504 112.655 52.1769 112.655 50.9383V45.0402H114.345L114.356 51.1528Z" fill="white"/>
<path d="M137.562 53.823V45.0402H142.238C144.13 45.0402 144.737 46.3431 144.737 48.0589C144.737 49.5764 144.004 50.9436 142.276 50.9436H139.263V53.8498L137.562 53.823ZM141.762 49.5335C142.467 49.5335 142.856 49.0294 142.856 48.0321C142.856 47.0348 142.484 46.4235 141.789 46.4235H139.252V49.5174L141.762 49.5335Z" fill="white"/>
<path d="M54.84 53.8231L53.1996 50.0697C53.6603 49.8338 54.0438 49.4752 54.306 49.035C54.5681 48.5949 54.6983 48.0912 54.6814 47.5818C54.6814 46.1662 54.0581 45.0402 52.1606 45.0402H47.4854V53.8499H49.2133V50.4558H51.5427L52.9316 53.8231H54.84ZM49.2133 46.429H51.7888C52.4231 46.429 52.8332 46.874 52.8332 47.7962C52.8332 48.7185 52.4067 49.0831 51.7396 49.0831H49.2133V46.429Z" fill="white"/>
<path d="M22.6436 50.0804H20.686V48.681H24.3824V53.6193C23.3379 53.8736 22.2653 53.9996 21.189 53.9946C18.3401 53.9946 16.9786 52.9223 16.9786 49.3351C16.9786 45.748 18.5097 44.7989 21.4351 44.7989C22.3474 44.8077 23.2556 44.9192 24.1418 45.1314L23.7919 46.5791C23.0615 46.4048 22.3126 46.3166 21.5609 46.3164C19.5267 46.3164 18.794 46.6434 18.794 49.3458C18.794 52.0483 19.5267 52.4826 21.4843 52.4826C21.8743 52.4806 22.263 52.4375 22.6436 52.3539V50.0804Z" fill="white"/>
<path d="M84.7893 49.3298C84.7893 52.9705 83.373 53.9893 80.5296 53.9893C77.6862 53.9893 76.248 52.9705 76.248 49.3298C76.248 45.689 77.6807 44.7936 80.5296 44.7936C83.3785 44.7936 84.7893 45.7534 84.7893 49.3298ZM82.9903 49.3298C82.9903 46.6488 82.4981 46.2735 80.5296 46.2735C78.5611 46.2735 78.0689 46.6649 78.0689 49.3298C78.0689 51.9947 78.5556 52.4611 80.5296 52.4611C82.5036 52.4611 82.9903 51.9839 82.9903 49.3298Z" fill="white"/>
<path d="M114.356 51.1528C114.356 53.4691 112.928 53.9999 110.583 53.9999C108.237 53.9999 106.81 53.4638 106.81 51.1528V45.0402H108.521V50.9383C108.521 52.1125 109.068 52.504 110.583 52.504C112.097 52.504 112.655 52.1769 112.655 50.9383V45.0402H114.345L114.356 51.1528Z" fill="white"/>
<path d="M137.562 53.823V45.0402H142.238C144.13 45.0402 144.737 46.3431 144.737 48.0589C144.737 49.5764 144.004 50.9436 142.276 50.9436H139.263V53.8498L137.562 53.823ZM141.762 49.5335C142.467 49.5335 142.856 49.0294 142.856 48.0321C142.856 47.0348 142.484 46.4235 141.789 46.4235H139.252V49.5174L141.762 49.5335Z" fill="white"/>
<path d="M54.84 53.8231L53.1996 50.0697C53.6603 49.8338 54.0438 49.4752 54.306 49.035C54.5681 48.5949 54.6983 48.0912 54.6814 47.5818C54.6814 46.1662 54.0581 45.0402 52.1606 45.0402H47.4854V53.8499H49.2133V50.4558H51.5427L52.9316 53.8231H54.84ZM49.2133 46.429H51.7888C52.4231 46.429 52.8332 46.874 52.8332 47.7962C52.8332 48.7185 52.4067 49.0831 51.7396 49.0831H49.2133V46.429Z" fill="white"/>
</g>
<defs>
<clipPath id="clip0_3_329">
<rect width="155" height="54" fill="white"/>
</clipPath>
</defs>
</svg>
