<svg width="232" height="32" viewBox="0 0 232 32" fill="none" xmlns="http://www.w3.org/2000/svg">
<g clip-path="url(#clip0_3_399)">
<path d="M37.4281 24.868L39.155 19.0291H39.2041L40.841 24.868H37.4281ZM29.9228 31.6395H35.4392L36.2577 28.9356H41.9214L42.6662 31.6395H48.3545L41.8477 12.6887H36.4869L29.9228 31.6395Z" fill="white"/>
<path d="M49.5486 31.6396H55.0404V24.4213H62.1446V19.907H55.0404V17.548H63.3232V12.6888H49.5486V31.6396Z" fill="white"/>
<path d="M70.7564 12.6888H65.2645V31.6396H70.7564V12.6888Z" fill="white"/>
<path d="M6.60495 18.3473V0H0C0.139138 8.08817 0.343752 16.1136 6.60495 18.3473Z" fill="white"/>
<path d="M30.3817 0H23.7767C23.3348 5.69777 24.6525 13.0727 23.1138 17.7125C19.9916 12.2933 18.3978 6.18859 18.4895 0L11.8845 0C11.887 4.28973 12.5545 8.55535 13.8652 12.6574C7.89866 15.3769 7.31755 23.2143 7.25208 31.6316H13.8652C14.299 25.7223 12.9895 18.1435 14.5282 13.2843C17.0899 18.4178 19.2179 23.9824 19.1443 31.6316H25.7574C25.7568 27.5445 25.0885 23.4827 23.7767 19.5934C28.6466 15.612 30.9219 9.16189 30.3817 0Z" fill="white"/>
<path d="M79.9224 12.7122C82.476 12.7801 84.3857 13.5874 85.6516 15.134C86.9175 16.6805 87.564 19.0318 87.5913 22.1876C87.5913 25.3226 86.9447 27.6738 85.6516 29.2412C84.3584 30.8087 82.4487 31.616 79.9224 31.663H74.1113V12.7122H79.9224ZM79.1039 30.0877C80.1611 30.1098 81.2148 29.9642 82.2222 29.6566C83.0563 29.3828 83.7993 28.9013 84.3748 28.2616C84.9794 27.5425 85.4049 26.7008 85.6188 25.8006C85.9042 24.6109 86.0389 23.3925 86.0199 22.1719C86.0393 20.9487 85.9047 19.7277 85.6188 18.5354C85.4049 17.6352 84.9794 16.7936 84.3748 16.0745C83.8001 15.4356 83.0567 14.9565 82.2222 14.6872C81.2162 14.373 80.1618 14.2246 79.1039 14.2483H75.7073V30.0877H79.1039Z" fill="white"/>
<path d="M100.809 12.7122V14.2797H90.8488V21.0825H100.179V22.65H90.8488V30.119H100.965V31.6865H89.2119V12.7122H100.809Z" fill="white"/>
<path d="M103.944 12.7122L109.403 29.6409H109.452L114.862 12.7122H116.548L110.32 31.6238H108.446L102.234 12.7122H103.944Z" fill="white"/>
<path d="M129.185 12.7123V14.2798H119.192V21.0826H128.555V22.6501H119.192V30.1191H129.316V31.6866H117.596V12.7123H129.185Z" fill="white"/>
<path d="M131.844 12.7122V30.0877H141.248V31.6552H130.24V12.7122H131.844Z" fill="white"/>
<path d="M140.594 18.4336C140.895 17.3146 141.396 16.2539 142.075 15.2987C142.714 14.4084 143.553 13.6665 144.53 13.1277C145.602 12.5972 146.79 12.3203 147.997 12.3203C149.203 12.3203 150.391 12.5972 151.463 13.1277C152.441 13.6652 153.281 14.4073 153.918 15.2987C154.6 16.2522 155.102 17.3134 155.4 18.4336C156.065 20.8825 156.065 23.4537 155.4 25.9026C155.105 27.024 154.604 28.0858 153.918 29.0376C153.278 29.9247 152.439 30.6637 151.463 31.2007C150.391 31.7312 149.203 32.0081 147.997 32.0081C146.79 32.0081 145.602 31.7312 144.53 31.2007C143.555 30.6624 142.716 29.9236 142.075 29.0376C141.393 28.084 140.891 27.0228 140.594 25.9026C139.939 23.4524 139.939 20.8838 140.594 18.4336ZM142.067 25.2051C142.293 26.1528 142.686 27.0566 143.229 27.8776C143.721 28.6476 144.393 29.297 145.193 29.7743C146.069 30.2431 147.055 30.4893 148.058 30.4893C149.061 30.4893 150.047 30.2431 150.923 29.7743C151.718 29.2945 152.388 28.6455 152.879 27.8776C153.404 27.0512 153.785 26.1486 154.008 25.2051C154.488 23.2039 154.488 21.1245 154.008 19.1233C153.784 18.1827 153.402 17.2829 152.879 16.4586C152.388 15.6907 151.718 15.0417 150.923 14.5619C150.047 14.0931 149.061 13.8469 148.058 13.8469C147.055 13.8469 146.069 14.0931 145.193 14.5619C144.393 15.0392 143.721 15.6886 143.229 16.4586C142.699 17.2796 142.317 18.1805 142.1 19.1233C141.61 21.1234 141.61 23.2049 142.1 25.2051H142.067Z" fill="white"/>
<path d="M164.888 12.7122C165.587 12.7029 166.282 12.8227 166.934 13.0648C167.532 13.2961 168.069 13.6522 168.505 14.1072C168.965 14.6019 169.311 15.1841 169.52 15.8158C169.991 17.3002 169.991 18.8849 169.52 20.3693C169.309 20.9998 168.963 21.5815 168.505 22.0778C168.085 22.5461 167.559 22.916 166.967 23.1594C166.316 23.4079 165.621 23.5305 164.92 23.5199H159.028V31.6237H157.391V12.7122H164.888ZM164.511 21.9838C165.005 22.0036 165.498 21.9293 165.962 21.7652C166.425 21.601 166.85 21.3503 167.212 21.0276C167.581 20.6335 167.862 20.172 168.039 19.6709C168.216 19.1698 168.286 18.6396 168.243 18.1121C168.286 17.5847 168.216 17.0544 168.039 16.5533C167.862 16.0523 167.581 15.5908 167.212 15.1966C166.85 14.8749 166.425 14.6254 165.961 14.4626C165.497 14.2998 165.005 14.227 164.511 14.2483H159.028V21.9838H164.511Z" fill="white"/>
<path d="M174.127 12.7122L179.938 29.2961L185.724 12.7122H188.073V31.6238H186.436V15.2829H186.396L180.666 31.6238H179.16L173.431 15.2829H173.382V31.6238H171.745V12.7122H174.127Z" fill="white"/>
<path d="M202.887 12.7122V14.2797H192.894V21.0825H202.257V22.65H192.894V30.119H202.977V31.6865H191.29V12.7122H202.887Z" fill="white"/>
<path d="M206.177 12.7123L215.999 28.7162H216.04V12.7123H217.677V31.6239H215.827L206.005 15.6278H205.956V31.6239H204.319V12.7123H206.177Z" fill="white"/>
<path d="M232 12.7123V14.2797H226.148V31.6238H224.552V14.2484H218.717V12.6809L232 12.7123Z" fill="white"/>
</g>
<defs>
<clipPath id="clip0_3_399">
<rect width="232" height="32" fill="white"/>
</clipPath>
</defs>
</svg>
